<svg width="230" height="40" viewBox="0 0 230 40" fill="none" xmlns="http://www.w3.org/2000/svg">
<g clip-path="url(#clip0_11954_4515)">
<path d="M100.128 0.0017395V40.0017" stroke="black" stroke-width="2.25" stroke-miterlimit="8"/>
<path d="M165.709 11.8973C164.251 10.7262 162.027 10.9862 160.853 12.4417C160.335 13.084 160.105 13.824 160.029 14.6195C159.977 15.1573 159.805 15.644 159.569 16.1173C158.798 17.6573 157.691 18.924 156.355 19.9973C154.781 21.264 153.05 22.1395 150.978 22.2306C150.056 22.2706 149.283 22.7084 148.683 23.3929C146.903 25.4151 147.997 28.6195 150.632 29.144C152.628 29.5417 154.529 28.1462 154.797 26.1306C154.87 25.5706 155.013 25.0017 155.232 24.484C156.237 22.1017 157.932 20.3306 160.178 19.0817C161.263 18.4773 162.425 18.1395 163.686 18.1484C164.727 18.1551 165.593 17.6995 166.248 16.9084C167.532 15.3529 167.284 13.164 165.709 11.8995V11.8973Z" fill="black"/>
<path d="M141.383 11.5262H146.037V8.52396H133.71V11.5262H138.366V28.8462H133.713V31.8484H146.039V28.8462H141.383V11.5262Z" fill="black"/>
<path d="M118.082 8.52396L113.754 13.5484V31.8484H116.771V22.4373H126.245V31.8484H129.262V13.5017L124.488 8.52396H118.082ZM126.243 19.4351H116.769V14.6595L119.468 11.5262H123.195L126.243 14.704V19.4351Z" fill="black"/>
<path d="M187.03 13.5017L182.256 8.52396H171.522V31.8484H174.539V22.4373H181.709L184.013 25.8973V31.8462H187.03V24.9928L184.489 21.1773L187.03 18.7728V13.4995V13.5017ZM184.013 17.4862L181.952 19.4351H174.539V11.5262H180.965L184.013 14.704V17.4862Z" fill="black"/>
<path d="M195.676 15.2528L197.195 11.1106H197.778L199.303 15.2528H198.736L198.296 13.9906H196.65L196.206 15.2528H195.674H195.676ZM197.293 12.1773L196.802 13.5684H198.153L197.679 12.1773L197.494 11.5928H197.483C197.409 11.824 197.347 12.0195 197.293 12.1773Z" fill="#666666"/>
<path d="M200.783 16.2506C200.401 16.2506 200.102 16.1773 199.886 16.0329C199.669 15.8884 199.546 15.684 199.519 15.4217H199.953C199.995 15.7262 200.267 15.8795 200.772 15.8795C201.342 15.8795 201.627 15.6217 201.627 15.1084V14.6862H201.616C201.498 14.8417 201.371 14.9573 201.234 15.0329C201.1 15.1106 200.933 15.1484 200.732 15.1484C200.348 15.1484 200.033 15.0084 199.79 14.7306C199.546 14.4529 199.426 14.0973 199.426 13.664C199.426 13.2306 199.548 12.8529 199.792 12.5862C200.035 12.3195 200.339 12.1862 200.701 12.1862C201.094 12.1862 201.397 12.3373 201.614 12.6373H201.625V12.2551H202.094V15.0884C202.094 15.4706 201.978 15.7595 201.744 15.9551C201.509 16.1506 201.19 16.2484 200.781 16.2484L200.783 16.2506ZM200.754 14.7551C201.359 14.7551 201.661 14.384 201.661 13.6417C201.661 12.8995 201.357 12.5817 200.748 12.5817C200.475 12.5817 200.265 12.6795 200.12 12.8773C199.975 13.0751 199.904 13.3395 199.904 13.6706C199.904 14.0017 199.977 14.2662 200.122 14.4617C200.268 14.6573 200.48 14.7551 200.752 14.7551H200.754Z" fill="#666666"/>
<path d="M204.006 15.3351C203.563 15.3351 203.211 15.1862 202.952 14.8862C202.693 14.5862 202.561 14.2106 202.561 13.7595C202.561 13.3084 202.693 12.9417 202.956 12.6373C203.22 12.3351 203.559 12.1817 203.977 12.1817C204.416 12.1817 204.754 12.3351 204.993 12.6417C205.231 12.9484 205.35 13.3573 205.35 13.8684H203.039C203.059 14.1862 203.15 14.444 203.318 14.6417C203.485 14.8417 203.713 14.9395 204.003 14.9395C204.45 14.9395 204.725 14.7351 204.83 14.3262H205.285C205.216 14.6462 205.068 14.8951 204.845 15.0706C204.622 15.2462 204.341 15.3351 204.001 15.3351H204.006ZM204.602 12.8084C204.452 12.6395 204.244 12.5528 203.979 12.5528C203.713 12.5528 203.503 12.6417 203.347 12.8195C203.191 12.9973 203.094 13.2284 203.054 13.5151H204.852C204.836 13.2128 204.754 12.9773 204.604 12.8084H204.602Z" fill="#666666"/>
<path d="M206.277 12.2573V12.6506H206.288C206.52 12.3417 206.835 12.1862 207.235 12.1862C207.549 12.1862 207.797 12.2684 207.974 12.4351C208.15 12.6017 208.239 12.8395 208.239 13.1484V15.2529H207.77V13.1906C207.77 12.9973 207.71 12.8484 207.592 12.7417C207.471 12.6351 207.306 12.5817 207.096 12.5817C206.857 12.5817 206.661 12.6595 206.507 12.8129C206.352 12.9684 206.274 13.1662 206.274 13.4106V15.2529H205.805V12.2573H206.274H206.277Z" fill="#666666"/>
<path d="M208.61 12.6395V12.2573H209.043V11.3128H209.512V12.2573H210.09V12.6395H209.512V14.5862C209.512 14.7706 209.613 14.8639 209.811 14.8639C209.896 14.8639 209.979 14.8506 210.059 14.8239H210.077V15.2306C209.95 15.2573 209.825 15.2706 209.702 15.2706C209.262 15.2706 209.043 15.0773 209.043 14.6906V12.6395H208.61Z" fill="#666666"/>
<path d="M210.575 11.6906V11.1106H211.044V11.6906H210.575ZM210.575 15.2528V12.2573H211.044V15.2528H210.575Z" fill="#666666"/>
<path d="M212.955 15.3351C212.52 15.3351 212.172 15.184 211.906 14.884C211.642 14.5817 211.511 14.2084 211.511 13.7595C211.511 13.3106 211.642 12.9373 211.906 12.6351C212.169 12.3328 212.52 12.184 212.955 12.184C213.306 12.184 213.592 12.2773 213.815 12.464C214.039 12.6506 214.177 12.9062 214.231 13.2262H213.757C213.721 13.0217 213.637 12.8617 213.498 12.7462C213.36 12.6306 213.179 12.5728 212.955 12.5728C212.647 12.5728 212.408 12.684 212.241 12.9084C212.073 13.1328 211.991 13.4173 211.991 13.7595C211.991 14.1017 212.076 14.3862 212.241 14.6084C212.406 14.8306 212.647 14.9417 212.955 14.9417C213.194 14.9417 213.384 14.8773 213.527 14.7484C213.67 14.6195 213.75 14.4373 213.771 14.2017H214.233C214.202 14.5617 214.074 14.8395 213.851 15.0395C213.628 15.2395 213.328 15.3373 212.955 15.3373V15.3351Z" fill="#666666"/>
<path d="M215.334 15.2528L216.852 11.1106H217.435L218.96 15.2528H218.393L217.953 13.9906H216.307L215.863 15.2528H215.331H215.334ZM216.953 12.1773L216.461 13.5684H217.812L217.339 12.1773L217.154 11.5928H217.142C217.069 11.824 217.006 12.0195 216.953 12.1773Z" fill="#666666"/>
<path d="M219.418 15.2528V11.1106H219.938V15.2528H219.418Z" fill="#666666"/>
<path d="M197.507 22.2884C196.954 22.2884 196.527 22.1506 196.228 21.8773C195.929 21.6039 195.768 21.2462 195.746 20.8062H196.255C196.324 21.5173 196.75 21.8728 197.532 21.8728C197.829 21.8728 198.066 21.8062 198.244 21.6728C198.423 21.5395 198.512 21.3484 198.512 21.0973C198.512 20.9862 198.492 20.8862 198.45 20.8017C198.407 20.7173 198.356 20.6484 198.296 20.5928C198.235 20.5395 198.146 20.4884 198.028 20.4417C197.907 20.3951 197.798 20.3595 197.695 20.3306C197.592 20.3017 197.454 20.2706 197.275 20.2328C197.063 20.1862 196.889 20.1395 196.75 20.0906C196.612 20.0417 196.474 19.9751 196.335 19.8906C196.197 19.8062 196.094 19.6973 196.027 19.5639C195.96 19.4306 195.926 19.2684 195.926 19.0795C195.926 18.7395 196.054 18.4728 196.311 18.2773C196.567 18.0817 196.907 17.9839 197.331 17.9839C198.26 17.9839 198.78 18.4151 198.896 19.2751H198.405C198.367 18.9817 198.258 18.7595 198.077 18.6106C197.896 18.4617 197.65 18.3884 197.342 18.3884C197.056 18.3884 196.831 18.4462 196.663 18.5617C196.496 18.6773 196.411 18.8417 196.411 19.0551C196.411 19.1484 196.429 19.2306 196.467 19.3017C196.503 19.3728 196.552 19.4328 196.612 19.4817C196.672 19.5306 196.75 19.5728 196.849 19.6128C196.947 19.6506 197.045 19.6839 197.141 19.7084C197.237 19.7328 197.356 19.7595 197.494 19.7862C197.686 19.8239 197.845 19.8595 197.967 19.8928C198.09 19.9262 198.226 19.9751 198.378 20.0417C198.528 20.1084 198.644 20.1817 198.727 20.2684C198.809 20.3528 198.881 20.4639 198.941 20.6017C199.001 20.7395 199.03 20.8973 199.03 21.0795C199.03 21.4573 198.892 21.7551 198.611 21.9684C198.331 22.1817 197.965 22.2906 197.51 22.2906L197.507 22.2884Z" fill="#666666"/>
<path d="M201.875 21.8351C201.614 22.1373 201.266 22.2862 200.83 22.2862C200.395 22.2862 200.046 22.1351 199.781 21.8351C199.517 21.5328 199.385 21.1595 199.385 20.7106C199.385 20.2617 199.517 19.8884 199.781 19.5862C200.044 19.284 200.395 19.1351 200.83 19.1351C201.266 19.1351 201.614 19.2862 201.875 19.5862C202.137 19.8884 202.268 20.2617 202.268 20.7106C202.268 21.1595 202.137 21.5328 201.875 21.8351ZM200.116 21.5595C200.283 21.7817 200.522 21.8928 200.83 21.8928C201.138 21.8928 201.375 21.7817 201.54 21.5595C201.706 21.3373 201.788 21.0551 201.788 20.7106C201.788 20.3662 201.703 20.0773 201.538 19.8551C201.371 19.6328 201.134 19.5217 200.83 19.5217C200.527 19.5217 200.283 19.6328 200.116 19.8573C199.948 20.0817 199.866 20.3662 199.866 20.7084C199.866 21.0506 199.95 21.3351 200.116 21.5573V21.5595Z" fill="#666666"/>
<path d="M202.487 19.5929V19.2106H202.898V18.7306C202.898 18.484 202.965 18.304 203.101 18.1951C203.237 18.0862 203.432 18.0306 203.691 18.0306C203.764 18.0306 203.843 18.0351 203.927 18.0418V18.4418C203.874 18.4373 203.822 18.4351 203.778 18.4351C203.628 18.4351 203.521 18.4573 203.461 18.504C203.398 18.5506 203.369 18.6329 203.369 18.7529V19.2106H203.923V19.5929H203.369V22.2062H202.9V19.5929H202.489H202.487Z" fill="#666666"/>
<path d="M204.128 19.5928V19.2106H204.562V18.2662H205.031V19.2106H205.609V19.5928H205.031V21.5395C205.031 21.724 205.131 21.8173 205.33 21.8173C205.415 21.8173 205.497 21.804 205.578 21.7773H205.596V22.184C205.468 22.2106 205.343 22.224 205.22 22.224C204.78 22.224 204.562 22.0306 204.562 21.644V19.5928H204.128Z" fill="#666666"/>
<path d="M206.801 22.2062L205.854 19.2106H206.357L206.882 21.0595L207.042 21.7017H207.054C207.112 21.4395 207.161 21.2284 207.203 21.0706L207.706 19.2106H208.197L208.681 21.0706L208.827 21.7017H208.838C208.9 21.4395 208.956 21.224 209.005 21.0595L209.559 19.2106H210.044L209.068 22.2062H208.588L208.092 20.3929L207.947 19.7662H207.936C207.882 20.0173 207.833 20.2262 207.786 20.3929L207.284 22.2062H206.799H206.801Z" fill="#666666"/>
<path d="M212.647 22.2351C212.35 22.2351 212.178 22.0862 212.134 21.7884H212.127C211.881 22.1062 211.549 22.264 211.133 22.264C210.836 22.264 210.593 22.1929 210.405 22.0506C210.215 21.9084 210.122 21.7017 210.122 21.4306C210.122 21.2906 210.144 21.1706 210.189 21.0684C210.233 20.9662 210.289 20.884 210.358 20.8195C210.428 20.7551 210.524 20.6995 210.644 20.6506C210.765 20.6017 210.883 20.5662 210.995 20.5395C211.106 20.5151 211.249 20.4884 211.421 20.4617C211.533 20.4462 211.613 20.4329 211.66 20.424C211.707 20.4151 211.772 20.3995 211.848 20.3773C211.924 20.3551 211.98 20.3329 212.009 20.304C212.04 20.2773 212.069 20.2395 212.096 20.1929C212.122 20.1462 212.136 20.0929 212.136 20.0306C212.136 19.8617 212.078 19.7306 211.959 19.6395C211.841 19.5484 211.678 19.504 211.466 19.504C210.984 19.504 210.736 19.724 210.72 20.164H210.269C210.276 19.8595 210.381 19.6129 210.584 19.4284C210.787 19.244 211.077 19.1506 211.459 19.1506C212.194 19.1506 212.562 19.4684 212.562 20.1017V21.5262C212.562 21.6573 212.585 21.7506 212.629 21.804C212.674 21.8573 212.757 21.8706 212.882 21.844H212.9V22.1862C212.824 22.2173 212.739 22.2329 212.645 22.2329L212.647 22.2351ZM211.238 21.9062C211.526 21.9062 211.75 21.8217 211.908 21.6551C212.067 21.4862 212.145 21.3017 212.145 21.1017V20.5929C212.002 20.6817 211.774 20.7551 211.464 20.8129C211.348 20.8351 211.258 20.8551 211.191 20.8684C211.127 20.8817 211.051 20.9062 210.966 20.9373C210.881 20.9706 210.816 21.0062 210.776 21.044C210.734 21.0817 210.698 21.1329 210.667 21.1973C210.635 21.2617 210.62 21.3351 210.62 21.4195C210.62 21.744 210.825 21.9062 211.238 21.9062Z" fill="#666666"/>
<path d="M213.717 19.2106V19.7084H213.728C213.824 19.5506 213.949 19.4218 214.103 19.324C214.257 19.2262 214.429 19.1773 214.617 19.1773C214.686 19.1773 214.749 19.1884 214.807 19.2129V19.664H214.789C214.731 19.644 214.661 19.6351 214.581 19.6351C214.342 19.6351 214.139 19.7195 213.969 19.8862C213.8 20.0551 213.715 20.2729 213.715 20.544V22.2062H213.246V19.2106H213.715H213.717Z" fill="#666666"/>
<path d="M216.392 22.2884C215.95 22.2884 215.597 22.1395 215.338 21.8395C215.079 21.5395 214.947 21.164 214.947 20.7128C214.947 20.2617 215.079 19.8951 215.342 19.5906C215.606 19.2884 215.945 19.1351 216.363 19.1351C216.803 19.1351 217.14 19.2884 217.379 19.5951C217.618 19.9017 217.736 20.3106 217.736 20.8217H215.425C215.445 21.1395 215.537 21.3973 215.704 21.5951C215.872 21.7951 216.099 21.8928 216.39 21.8928C216.836 21.8928 217.111 21.6884 217.216 21.2795H217.672C217.602 21.5995 217.455 21.8484 217.232 22.024C217.008 22.1995 216.727 22.2884 216.388 22.2884H216.392ZM216.986 19.7617C216.836 19.5928 216.629 19.5062 216.363 19.5062C216.097 19.5062 215.887 19.5951 215.731 19.7728C215.575 19.9506 215.479 20.1817 215.439 20.4684H217.236C217.22 20.1662 217.138 19.9306 216.988 19.7617H216.986Z" fill="#666666"/>
<path d="M196.005 29.1595V25.0173H198.921V25.4751H196.523V26.784H198.7V27.224H196.523V28.6773H198.99V29.1573H196.002L196.005 29.1595Z" fill="#666666"/>
<path d="M199.997 26.1639V26.5573H200.008C200.241 26.2484 200.556 26.0928 200.955 26.0928C201.27 26.0928 201.518 26.1751 201.694 26.3417C201.871 26.5084 201.96 26.7462 201.96 27.0551V29.1595H201.491V27.0973C201.491 26.9039 201.431 26.7551 201.313 26.6484C201.192 26.5417 201.027 26.4884 200.817 26.4884C200.578 26.4884 200.381 26.5662 200.227 26.7195C200.073 26.8751 199.995 27.0728 199.995 27.3173V29.1595H199.526V26.1639H199.995H199.997Z" fill="#666666"/>
<path d="M203.769 30.1573C203.387 30.1573 203.088 30.0839 202.871 29.9395C202.655 29.7951 202.532 29.5906 202.505 29.3284H202.938C202.981 29.6328 203.253 29.7862 203.758 29.7862C204.327 29.7862 204.613 29.5284 204.613 29.0151V28.5928H204.602C204.483 28.7484 204.356 28.8639 204.22 28.9395C204.086 29.0173 203.918 29.0551 203.717 29.0551C203.333 29.0551 203.019 28.9151 202.775 28.6373C202.532 28.3595 202.411 28.0039 202.411 27.5706C202.411 27.1373 202.534 26.7595 202.777 26.4928C203.021 26.2262 203.324 26.0928 203.686 26.0928C204.079 26.0928 204.383 26.2439 204.599 26.5439H204.611V26.1617H205.08V28.9951C205.08 29.3773 204.963 29.6662 204.729 29.8617C204.495 30.0573 204.175 30.1551 203.767 30.1551L203.769 30.1573ZM203.74 28.6617C204.345 28.6617 204.646 28.2906 204.646 27.5484C204.646 26.8062 204.343 26.4884 203.733 26.4884C203.461 26.4884 203.251 26.5862 203.106 26.7839C202.96 26.9817 202.889 27.2462 202.889 27.5773C202.889 27.9084 202.963 28.1728 203.108 28.3684C203.253 28.5639 203.465 28.6617 203.738 28.6617H203.74Z" fill="#666666"/>
<path d="M205.716 25.5973V25.0173H206.185V25.5973H205.716ZM205.716 29.1595V26.164H206.185V29.1595H205.716Z" fill="#666666"/>
<path d="M207.288 26.1639V26.5573H207.299C207.531 26.2484 207.846 26.0928 208.246 26.0928C208.561 26.0928 208.809 26.1751 208.985 26.3417C209.162 26.5084 209.251 26.7462 209.251 27.0551V29.1595H208.782V27.0973C208.782 26.9039 208.722 26.7551 208.603 26.6484C208.483 26.5417 208.317 26.4884 208.108 26.4884C207.869 26.4884 207.672 26.5662 207.518 26.7195C207.364 26.8751 207.286 27.0728 207.286 27.3173V29.1595H206.817V26.1639H207.286H207.288Z" fill="#666666"/>
<path d="M211.147 29.2417C210.705 29.2417 210.352 29.0929 210.093 28.7929C209.834 28.4929 209.702 28.1173 209.702 27.6662C209.702 27.2151 209.834 26.8484 210.097 26.544C210.361 26.2417 210.7 26.0884 211.118 26.0884C211.558 26.0884 211.895 26.2417 212.134 26.5484C212.373 26.8551 212.491 27.264 212.491 27.7751H210.18C210.2 28.0929 210.291 28.3506 210.459 28.5484C210.626 28.7484 210.854 28.8462 211.144 28.8462C211.591 28.8462 211.866 28.6417 211.971 28.2329H212.426C212.357 28.5529 212.21 28.8017 211.986 28.9773C211.763 29.1529 211.482 29.2417 211.142 29.2417H211.147ZM211.741 26.7151C211.591 26.5462 211.383 26.4595 211.118 26.4595C210.852 26.4595 210.642 26.5484 210.486 26.7262C210.329 26.904 210.233 27.1351 210.193 27.4217H211.991C211.975 27.1195 211.892 26.884 211.743 26.7151H211.741Z" fill="#666666"/>
<path d="M214.226 29.2417C213.784 29.2417 213.431 29.0929 213.172 28.7929C212.913 28.4929 212.781 28.1173 212.781 27.6662C212.781 27.2151 212.913 26.8484 213.176 26.544C213.44 26.2417 213.779 26.0884 214.197 26.0884C214.637 26.0884 214.974 26.2417 215.213 26.5484C215.452 26.8551 215.57 27.264 215.57 27.7751H213.259C213.279 28.0929 213.371 28.3506 213.538 28.5484C213.706 28.7484 213.933 28.8462 214.224 28.8462C214.67 28.8462 214.945 28.6417 215.05 28.2329H215.506C215.436 28.5529 215.289 28.8017 215.066 28.9773C214.842 29.1529 214.561 29.2417 214.222 29.2417H214.226ZM214.82 26.7151C214.67 26.5462 214.463 26.4595 214.197 26.4595C213.931 26.4595 213.721 26.5484 213.565 26.7262C213.409 26.904 213.313 27.1351 213.273 27.4217H215.07C215.054 27.1195 214.972 26.884 214.822 26.7151H214.82Z" fill="#666666"/>
<path d="M216.495 26.1639V26.6617H216.506C216.602 26.5039 216.727 26.3751 216.881 26.2773C217.035 26.1795 217.207 26.1306 217.395 26.1306C217.464 26.1306 217.526 26.1417 217.584 26.1662V26.6173H217.567C217.509 26.5973 217.439 26.5884 217.359 26.5884C217.12 26.5884 216.917 26.6728 216.747 26.8395C216.577 27.0084 216.492 27.2262 216.492 27.4973V29.1595H216.024V26.1639H216.492H216.495Z" fill="#666666"/>
<path d="M218.009 25.5973V25.0173H218.478V25.5973H218.009ZM218.009 29.1595V26.164H218.478V29.1595H218.009Z" fill="#666666"/>
<path d="M219.581 26.1639V26.5573H219.592C219.824 26.2484 220.139 26.0928 220.539 26.0928C220.854 26.0928 221.101 26.1751 221.278 26.3417C221.454 26.5084 221.544 26.7462 221.544 27.0551V29.1595H221.075V27.0973C221.075 26.9039 221.014 26.7551 220.896 26.6484C220.775 26.5417 220.61 26.4884 220.4 26.4884C220.161 26.4884 219.965 26.5662 219.811 26.7195C219.657 26.8751 219.579 27.0728 219.579 27.3173V29.1595H219.11V26.1639H219.579H219.581Z" fill="#666666"/>
<path d="M223.352 30.1573C222.97 30.1573 222.671 30.0839 222.455 29.9395C222.238 29.7951 222.115 29.5906 222.088 29.3284H222.522C222.564 29.6328 222.836 29.7862 223.341 29.7862C223.911 29.7862 224.196 29.5284 224.196 29.0151V28.5928H224.185C224.067 28.7484 223.94 28.8639 223.803 28.9395C223.669 29.0173 223.502 29.0551 223.301 29.0551C222.917 29.0551 222.602 28.9151 222.359 28.6373C222.115 28.3595 221.995 28.0039 221.995 27.5706C221.995 27.1373 222.117 26.7595 222.361 26.4928C222.604 26.2262 222.908 26.0928 223.27 26.0928C223.663 26.0928 223.966 26.2439 224.183 26.5439H224.194V26.1617H224.663V28.9951C224.663 29.3773 224.547 29.6662 224.312 29.8617C224.078 30.0573 223.759 30.1551 223.35 30.1551L223.352 30.1573ZM223.323 28.6617C223.928 28.6617 224.23 28.2906 224.23 27.5484C224.23 26.8062 223.926 26.4884 223.317 26.4884C223.044 26.4884 222.834 26.5862 222.689 26.7839C222.544 26.9817 222.472 27.2462 222.472 27.5773C222.472 27.9084 222.546 28.1728 222.691 28.3684C222.836 28.5639 223.049 28.6617 223.321 28.6617H223.323Z" fill="#666666"/>
<path d="M85.5711 18.9662C85.2607 18.1328 84.8007 17.3817 84.1934 16.7328C83.586 16.084 82.8245 15.5662 81.9313 15.1951C81.0381 14.824 79.9886 14.6328 78.8006 14.6328C77.5479 14.6528 76.389 14.9395 75.3573 15.4728C74.3279 16.0084 73.4392 16.6751 72.7157 17.4595L72.6219 17.5595L74.9733 19.5795L75.0603 19.4817C75.5449 18.9573 76.1099 18.5484 76.7418 18.2662C77.3737 17.984 78.0637 17.8395 78.8006 17.8395C79.4504 17.8395 80.0176 17.944 80.4866 18.1528C80.9533 18.3617 81.353 18.6395 81.6634 18.9795C81.9737 19.3195 82.2104 19.7195 82.369 20.164C82.5253 20.6128 82.6057 21.0951 82.6057 21.5951V21.884H77.6953C76.5364 21.884 75.5293 22.0128 74.6941 22.2617C73.8568 22.5151 73.1556 22.8728 72.6107 23.324C72.0659 23.7795 71.655 24.3062 71.387 24.8928C71.1191 25.4795 70.9851 26.1151 70.9851 26.7795C70.9851 27.5084 71.1258 28.1973 71.4049 28.824C71.6796 29.4528 72.0815 30.0151 72.5906 30.4862C73.0998 30.9617 73.7384 31.3395 74.4932 31.6151C75.2435 31.8884 76.1009 32.0284 77.0477 32.0284C78.392 32.0284 79.5844 31.7151 80.6004 31.1017C81.4512 30.584 82.1256 29.9528 82.6079 29.2151V31.704H86.0334V21.5951C86.0378 20.6817 85.8793 19.7928 85.5734 18.964L85.5711 18.9662ZM82.1703 26.4462C81.8777 26.9973 81.4937 27.4706 81.0337 27.8462C80.5692 28.224 80.0355 28.5195 79.446 28.7306C78.8565 28.9395 78.2602 29.0462 77.6707 29.0462C76.7284 29.0462 75.9535 28.8306 75.3752 28.4062C74.7991 27.9862 74.52 27.4551 74.52 26.7817C74.52 26.1906 74.7634 25.7128 75.2658 25.3173C75.7727 24.9173 76.5922 24.7173 77.7042 24.7173H82.6102C82.5901 25.3528 82.4427 25.9328 82.1703 26.4462Z" fill="black"/>
<path d="M7.94054 15.2195H4.51733V31.7351H7.94054V15.2195Z" fill="black"/>
<path d="M20.1752 14.924C18.2972 14.924 16.2384 15.2218 14.3559 15.7684C13.6302 15.3195 12.7817 15.1018 11.7701 15.1018H11.3302V31.7351H14.7534V18.5706C16.4572 18.0662 17.8685 17.8284 19.1703 17.8284C22.5511 17.8284 23.2589 19.8351 23.2589 21.5151V31.7306H26.6821V21.2462C26.6821 19.2084 26.0949 17.6218 24.9449 16.5262C23.8172 15.464 22.2117 14.9218 20.1752 14.9218V14.924Z" fill="black"/>
<path d="M52.1497 31.7351H55.5729V7.53952L52.1497 8.49063V31.7351Z" fill="black"/>
<path d="M58.9581 31.7351H62.3813V7.53952L58.9581 8.49063V31.7351Z" fill="black"/>
<path d="M69.1898 15.2195H65.7666V31.7351H69.1898V15.2195Z" fill="black"/>
<path d="M48.7622 15.2195H45.339V31.7351H48.7622V15.2195Z" fill="black"/>
<path d="M40.241 15.5951C39.0932 18.8284 37.4988 22.564 35.7191 26.2062C34.0131 22.804 32.4143 19.0706 31.1794 15.5951L31.0678 15.2862H27.3141L27.5753 15.9284C29.7012 21.1395 32.3339 26.6195 35.1966 31.7729L35.3284 32.0129H36.0898L36.2216 31.7706C39.062 26.604 41.6969 21.1284 43.8428 15.9284L44.1086 15.2862H40.3504L40.2432 15.5951H40.241Z" fill="black"/>
</g>
<defs>
<clipPath id="clip0_11954_4515">
<rect width="230" height="40" fill="white" transform="translate(0 0.0017395)"/>
</clipPath>
</defs>
</svg>
