<?xml version="1.0" encoding="UTF-8"?>
<svg version="1.1" xmlns="http://www.w3.org/2000/svg" width="1024" height="1024">
<path d="M0 0 C48.5268341 16.57885607 87.06821208 50.6215707 109.69311523 96.54785156 C118.356535 114.67612526 123.66800783 133.47615365 126.33032227 153.36938477 C127.0770794 158.51190865 127.0770794 158.51190865 130.45654297 162.16845703 C132.54756757 162.75543206 132.54756757 162.75543206 134.90185547 162.90673828 C135.80162109 163.00124268 136.70138672 163.09574707 137.62841797 163.19311523 C138.60294922 163.28810303 139.57748047 163.38309082 140.58154297 163.48095703 C158.75577903 165.56631188 176.81739832 169.3922802 193.45654297 177.16845703 C194.41947266 177.61294189 194.41947266 177.61294189 195.40185547 178.06640625 C209.19495416 184.48698718 221.87318328 192.25080361 233.45654297 202.16845703 C234.28798828 202.87744141 235.11943359 203.58642578 235.97607422 204.31689453 C259.20846235 224.65861686 274.32656645 251.57500517 282.45654297 281.16845703 C282.84084473 282.56342407 282.84084473 282.56342407 283.23291016 283.98657227 C284.86771236 290.43240754 285.83287307 296.78493098 286.44873047 303.39111328 C286.56076561 304.59258499 286.56076561 304.59258499 286.67506409 305.81832886 C286.97685544 309.13532722 287.26919281 312.4526267 287.53515625 315.77270508 C287.73612411 318.23111692 287.9653251 320.68559868 288.19873047 323.14111328 C288.251008 323.88901627 288.30328552 324.63691925 288.35714722 325.40748596 C288.73030259 329.1298893 289.16130674 330.87406519 291.84667969 333.55175781 C292.70793457 334.08526855 293.56918945 334.6187793 294.45654297 335.16845703 C295.45169922 335.79365234 296.44685547 336.41884766 297.47216797 337.06298828 C298.53951172 337.69591797 299.60685547 338.32884766 300.70654297 338.98095703 C316.41888953 348.52445844 328.31875412 360.28566115 337.45654297 376.16845703 C337.94767578 376.99732422 338.43880859 377.82619141 338.94482422 378.68017578 C352.37023298 403.16180353 352.94904293 436.42754883 345.72412109 462.84667969 C337.51367385 490.85966247 321.3276073 512.92972765 295.59619141 527.20019531 C271.46361943 539.98570644 245.50314076 541.35702013 218.73779297 541.25439453 C216.71732638 541.2500975 214.69685921 541.24606525 212.6763916 541.24227905 C206.269723 541.22750065 199.86314946 541.19986434 193.45654297 541.16845703 C192.40674255 541.16338638 191.35694214 541.15831573 190.27532959 541.15309143 C176.61665705 541.08494189 162.95851263 540.98069932 149.30029297 540.85107422 C144.99953773 540.81071615 140.69879074 540.77633157 136.39794922 540.74658203 C131.07990142 540.70977591 125.76201573 540.66355945 120.44410706 540.61039352 C118.45067582 540.59198733 116.45721163 540.57682967 114.46372986 540.56511307 C111.71571767 540.54826729 108.96808685 540.51927868 106.22021484 540.48730469 C105.41638367 540.4851445 104.61255249 540.48298431 103.78436279 540.48075867 C98.53316981 540.40254746 93.52313503 540.18389318 89.57275391 536.33129883 C86.27153756 529.93465061 90.25599417 520.33315821 92.20654297 513.85595703 C92.44630859 512.9890625 92.68607422 512.12216797 92.93310547 511.22900391 C94.47157129 506.0545248 95.85463644 502.34918654 100.45654297 499.16845703 C107.44257525 497.05696136 114.46978573 496.89801919 121.70751953 496.97314453 C122.7855484 496.97606506 123.86357727 496.9789856 124.97427368 496.98199463 C127.3007823 496.98956616 129.62727964 497.00175605 131.95374298 497.01812744 C135.65715335 497.04387406 139.3604186 497.05674396 143.06390381 497.06640625 C152.2702583 497.09302208 161.47647596 497.14116107 170.68273926 497.18920898 C178.45844542 497.22902413 186.23409736 497.26016948 194.00988007 497.28033447 C197.6198257 497.29309526 201.22954302 497.31811734 204.8394165 497.34375 C235.29070967 497.48067871 266.55933635 496.37371348 290.58544922 475.30126953 C302.59027791 462.78616848 305.66642146 446.25632076 305.83154297 429.60595703 C305.84564209 428.56528076 305.85974121 427.52460449 305.87426758 426.45239258 C305.78089162 411.44250239 300.96266378 395.94326627 290.39404297 384.90283203 C280.31068978 375.87660458 268.99943975 371.03589008 256.14428711 367.39868164 C251.5000877 366.03558142 247.90450514 364.75189905 244.45654297 361.16845703 C242.95281245 357.2748586 243.38548971 353.08836506 243.46435547 348.98486328 C243.48465134 347.32805567 243.50389864 345.67123495 243.5222168 344.0144043 C243.53788193 342.71903244 243.53788193 342.71903244 243.55386353 341.39749146 C243.80439923 317.26181492 242.58308837 294.11878469 231.45654297 272.16845703 C230.95380859 271.15267578 230.45107422 270.13689453 229.93310547 269.09033203 C226.1490986 261.72778472 221.88611686 255.40317686 216.45654297 249.16845703 C215.73724609 248.32798828 215.01794922 247.48751953 214.27685547 246.62158203 C210.25259883 241.97017661 210.25259883 241.97017661 205.45654297 238.16845703 C205.45654297 237.50845703 205.45654297 236.84845703 205.45654297 236.16845703 C204.66957031 235.81460938 204.66957031 235.81460938 203.86669922 235.45361328 C201.34828013 234.11072855 199.06889474 232.53644203 196.73852539 230.89379883 C182.35819305 220.85326235 166.66853982 213.70152013 149.45654297 210.16845703 C148.07813232 209.884823 148.07813232 209.884823 146.671875 209.59545898 C136.32626308 207.73077669 126.11187063 208.05266665 115.65136719 208.28491211 C113.28695527 208.3333847 110.92283524 208.36308474 108.55810547 208.39111328 C107.84756012 208.41287125 107.13701477 208.43462921 106.40493774 208.45704651 C101.42035232 208.50615299 97.76636497 207.68985175 93.45654297 205.16845703 C90.27221432 200.58922336 89.52654585 195.45936341 88.58935547 190.06298828 C88.42789032 189.18430588 88.26642517 188.30562347 88.10006714 187.40031433 C87.58522165 184.59535664 87.08215355 181.7884876 86.58154297 178.98095703 C82.10432369 153.49045212 82.10432369 153.49045212 74.14404297 128.91845703 C73.85118408 128.18723633 73.5583252 127.45601562 73.2565918 126.70263672 C57.65825967 88.7133496 28.33411007 63.35439541 -8.89550781 47.24365234 C-21.27116275 42.21853854 -34.35245102 39.11696908 -47.54345703 37.16845703 C-48.17324463 37.07346924 -48.80303223 36.97848145 -49.4519043 36.88061523 C-56.96981541 35.88594865 -64.53664578 35.9682216 -72.10595703 35.98095703 C-72.82165863 35.98189362 -73.53736023 35.9828302 -74.27474976 35.98379517 C-117.09644977 36.10550734 -156.74113019 52.28089934 -187.29345703 82.54345703 C-193.71009028 89.02860029 -199.4831943 95.55378144 -204.54345703 103.16845703 C-205.13151123 104.03857422 -205.13151123 104.03857422 -205.73144531 104.92626953 C-225.38764439 134.20765063 -234.75619252 167.88182424 -239.07543945 202.63012695 C-239.88969769 208.70027064 -240.79540498 213.23996866 -244.54345703 218.16845703 C-248.22370386 220.05267065 -251.28127354 220.4176047 -255.38330078 220.44189453 C-257.08498413 220.46823975 -257.08498413 220.46823975 -258.82104492 220.49511719 C-260.02881592 220.51106934 -261.23658691 220.52702148 -262.48095703 220.54345703 C-300.85703857 221.54794991 -332.59449131 234.74570352 -359.21533203 262.48876953 C-383.56201472 288.79163078 -396.86234473 324.9013084 -395.68408203 360.66894531 C-394.01611985 390.31581484 -384.26704322 419.57936869 -364.54345703 442.16845703 C-363.79837891 443.02310547 -363.05330078 443.87775391 -362.28564453 444.75830078 C-333.06613727 477.69215219 -293.5149458 494.14259706 -249.94042969 496.96118164 C-242.52094975 497.35451898 -235.0915717 497.31648253 -227.66381836 497.29882812 C-224.98106253 497.29345724 -222.29847352 497.29881449 -219.61572266 497.30517578 C-201.69446467 498.46342393 -201.69446467 498.46342393 -185.54345703 493.16845703 C-184.20071705 490.66568251 -183.12346935 488.35767374 -182.10595703 485.73095703 C-180.16136565 480.89588662 -178.09181605 476.1948676 -175.73486328 471.54345703 C-172.55920136 465.26888783 -169.62655757 458.89577662 -166.75634766 452.47729492 C-165.91668371 450.6019965 -165.07012524 448.72991336 -164.22314453 446.85791016 C-157.4752298 433.55207953 -157.4752298 433.55207953 -155.54345703 419.16845703 C-159.816341 416.89176008 -163.96993586 415.35440929 -168.60595703 413.98095703 C-180.76982051 410.11043162 -190.54010871 403.12523631 -199.54345703 394.16845703 C-200.22923828 393.51748047 -200.91501953 392.86650391 -201.62158203 392.19580078 C-214.8453388 378.68570283 -221.72283047 358.82329511 -221.54345703 340.16845703 C-220.67237859 329.21775666 -215.49651423 319.63951076 -207.54345703 312.16845703 C-200.15922972 305.89399799 -190.52996506 302.35126498 -180.73095703 302.82080078 C-171.558052 304.27863747 -163.8590308 307.51067441 -156.54345703 313.16845703 C-155.02751953 314.28220703 -155.02751953 314.28220703 -153.48095703 315.41845703 C-152.84158203 315.99595703 -152.20220703 316.57345703 -151.54345703 317.16845703 C-151.54345703 317.82845703 -151.54345703 318.48845703 -151.54345703 319.16845703 C-150.88345703 319.16845703 -150.22345703 319.16845703 -149.54345703 319.16845703 C-147.4383606 321.75439384 -145.47945682 324.40635547 -143.52783203 327.10791016 C-140.56223214 331.10875757 -137.59487354 334.24031347 -133.54345703 337.16845703 C-129.70099839 337.55921554 -127.19633896 337.38608434 -123.54345703 336.16845703 C-123.21345703 335.17845703 -122.88345703 334.18845703 -122.54345703 333.16845703 C-121.88345703 333.16845703 -121.22345703 333.16845703 -120.54345703 333.16845703 C-119.87315319 331.8369485 -119.20738445 330.50315648 -118.54345703 329.16845703 C-118.17865234 328.44529297 -117.81384766 327.72212891 -117.43798828 326.97705078 C-113.85939517 319.1351518 -113.83474534 313.04797393 -116.68017578 304.92236328 C-118.92826008 299.49616529 -121.47323911 294.27575162 -124.16503906 289.05957031 C-128.6107366 280.41964437 -132.46186008 271.55631109 -136.23095703 262.60595703 C-136.50690704 261.95563507 -136.78285706 261.30531311 -137.06716919 260.63528442 C-154.85165133 218.63310015 -154.85165133 218.63310015 -147.98095703 198.16845703 C-135.03777592 168.78516518 -108.35887182 153.21530204 -79.86352539 141.90429688 C-62.42729377 135.16845703 -62.42729377 135.16845703 -55.54345703 135.16845703 C-55.21345703 134.50845703 -54.88345703 133.84845703 -54.54345703 133.16845703 C-52.62939453 132.67626953 -52.62939453 132.67626953 -49.91845703 132.29345703 C-48.30003906 132.04982422 -48.30003906 132.04982422 -46.64892578 131.80126953 C-46.01519043 131.70620117 -45.38145508 131.61113281 -44.72851562 131.51318359 C-41.22214119 130.95999916 -37.73055328 130.32550357 -34.23608398 129.70214844 C-29.34268384 128.83311174 -24.44404825 127.99587569 -19.54345703 127.16845703 C-18.81126953 127.0440625 -18.07908203 126.91966797 -17.32470703 126.79150391 C-9.93236199 125.56678008 -2.58998573 124.94355113 4.89404297 124.79345703 C5.62792236 124.76735352 6.36180176 124.74125 7.11791992 124.71435547 C12.49196574 124.69724651 17.11735492 125.86332938 21.45654297 129.16845703 C25.04522583 134.92493775 24.20035258 142.62832019 23.45654297 149.16845703 C20.04769776 163.71091258 11.85077878 174.12557494 -0.66137695 182.17407227 C-4.00825938 184.08982227 -7.38563523 185.92593021 -10.79345703 187.73095703 C-12.00127707 188.38371512 -13.20830352 189.03794362 -14.41455078 189.69360352 C-16.75360098 190.96395589 -19.09558288 192.22816155 -21.43994141 193.48876953 C-25.17619715 195.5109092 -28.86841177 197.60016997 -32.54345703 199.73095703 C-36.32896562 201.91148485 -40.13224877 204.0391616 -43.98095703 206.10595703 C-59.36349788 214.23161984 -59.36349788 214.23161984 -73.54345703 224.16845703 C-73.54345703 224.82845703 -73.54345703 225.48845703 -73.54345703 226.16845703 C-58.33989364 229.51603062 -40.4063663 220.84349728 -26.54345703 215.16845703 C-26.54345703 214.50845703 -26.54345703 213.84845703 -26.54345703 213.16845703 C-25.65400391 213.12333984 -24.76455078 213.07822266 -23.84814453 213.03173828 C-17.69844543 212.14901375 -12.21341542 209.00939192 -6.66845703 206.35595703 C-4.4004564 205.28646185 -2.13223141 204.2174423 0.13623047 203.14892578 C1.21445068 202.63990723 2.2926709 202.13088867 3.40356445 201.60644531 C4.91478882 200.89464111 4.91478882 200.89464111 6.45654297 200.16845703 C7.34607666 199.74935059 8.23561035 199.33024414 9.15209961 198.8984375 C9.94221436 198.53508301 10.7323291 198.17172852 11.54638672 197.79736328 C12.22048584 197.48484619 12.89458496 197.1723291 13.58911133 196.8503418 C17.03357551 195.59261027 19.06769039 195.88964474 22.45654297 197.16845703 C28.12231442 202.99072499 31.7347229 210.76701944 35.51904297 217.85595703 C36.1178125 218.95101562 36.71658203 220.04607422 37.33349609 221.17431641 C46.52169241 238.27261382 50.83979045 252.6014163 48.05419922 271.96533203 C46.75438963 281.37069578 50.02662534 288.19943026 55.26904297 295.85595703 C56.25966386 297.34615324 57.24919339 298.83707536 58.23779297 300.32861328 C58.76115234 301.11252441 59.28451172 301.89643555 59.82373047 302.70410156 C62.69203218 307.03314424 65.48131677 311.41224364 68.26904297 315.79345703 C68.85145752 316.70869141 69.43387207 317.62392578 70.03393555 318.56689453 C74.40393984 325.45853766 78.70308505 332.39182277 82.95654297 339.35595703 C83.51962158 340.27521973 84.0827002 341.19448242 84.6628418 342.14160156 C96.98568906 362.42184431 96.98568906 362.42184431 96.45654297 369.16845703 C94.03989433 375.61285339 87.51271265 378.71792931 81.60888672 381.52001953 C74.36387275 384.50595449 67.05426342 386.31449312 59.37280273 387.73730469 C57.3816927 388.12741211 55.4154024 388.6397107 53.45654297 389.16845703 C51.03390062 392.11874246 51.03390062 392.11874246 51.83154297 396.10595703 C53.70290807 403.62835229 58.81582447 409.93357687 63.64404297 415.84814453 C65.96400786 418.81809958 66.60799591 420.38213342 66.45654297 424.16845703 C60.47063841 435.9060351 41.91995912 439.05489332 30.45654297 443.16845703 C30.45654297 444.15845703 30.45654297 445.14845703 30.45654297 446.16845703 C31.24826904 446.40967285 32.03999512 446.65088867 32.85571289 446.89941406 C35.81495494 447.81158497 38.76777232 448.74173038 41.7175293 449.68408203 C43.61382925 450.28390014 45.51661858 450.86307651 47.41943359 451.44189453 C59.25427483 455.24935016 59.25427483 455.24935016 62.45654297 461.16845703 C62.92860656 467.95126543 56.59505945 474.12004124 52.51513672 478.88330078 C48.65928908 485.03656048 47.93847275 490.77914771 49.35498047 497.86767578 C49.83237842 499.86735825 50.32504067 501.8634475 50.83154297 503.85595703 C55.82663196 525.52631809 55.82663196 525.52631809 52.26904297 535.35595703 C48.96058721 540.48976769 45.3036657 542.64820512 39.45654297 544.16845703 C1.92890344 550.60447087 -39.77665686 537.58564892 -76.33007812 529.38989258 C-77.57096191 529.11314697 -78.8118457 528.83640137 -80.09033203 528.55126953 C-81.1715332 528.30779785 -82.25273437 528.06432617 -83.36669922 527.81347656 C-86.7462791 527.12727536 -90.12590398 526.6248852 -93.54345703 526.16845703 C-91.323954 530.39751011 -88.74992012 532.93377886 -85.04345703 535.91845703 C-84.51373291 536.35037354 -83.98400879 536.78229004 -83.43823242 537.22729492 C-80.87334114 539.31515688 -78.28558416 541.37326964 -75.69580078 543.43017578 C-54.21836704 560.64302556 -54.21836704 560.64302556 -53.12548828 569.59033203 C-53.38640876 576.03944167 -55.48995685 582.24469548 -57.23095703 588.41845703 C-57.97303485 591.09840521 -58.7092909 593.77994295 -59.44580078 596.46142578 C-59.62829376 597.12178329 -59.81078674 597.78214081 -59.99880981 598.46250916 C-61.08904272 602.42834452 -62.10554431 606.40318496 -63.04736328 610.40673828 C-63.26239502 611.31842773 -63.47742676 612.23011719 -63.69897461 613.16943359 C-64.08295622 614.82394491 -64.457201 616.48076004 -64.81958008 618.14013672 C-65.89396671 622.71975379 -67.30871646 625.73664193 -70.54345703 629.16845703 C-73.79322885 629.24970133 -75.89112596 628.73158043 -78.37158203 626.59033203 C-82.87308659 621.6496563 -86.6604369 616.22684577 -90.4777832 610.75683594 C-95.64736341 603.44929785 -101.53394812 596.79032349 -107.54345703 590.16845703 C-108.27951172 589.34732422 -109.01556641 588.52619141 -109.77392578 587.68017578 C-127.3376739 569.09725466 -152.58693521 553.76460784 -177.29345703 547.16845703 C-177.97553223 546.98516846 -178.65760742 546.80187988 -179.36035156 546.61303711 C-196.480193 542.48894633 -214.38495715 542.62896248 -231.87719727 542.1394043 C-251.52538531 541.57255886 -271.20600968 540.28469697 -290.41845703 535.85595703 C-291.35713623 535.64430908 -292.29581543 535.43266113 -293.26293945 535.21459961 C-325.81734267 527.6234507 -355.6924817 511.92299738 -380.27001953 489.25439453 C-382.38239943 487.31623153 -384.54343775 485.45822432 -386.73095703 483.60595703 C-390.73698969 480.10569603 -394.15821031 476.26363408 -397.54345703 472.16845703 C-398.15833984 471.44142578 -398.77322266 470.71439453 -399.40673828 469.96533203 C-421.34481978 443.41102096 -435.37647289 411.38158995 -439.54345703 377.16845703 C-439.65560547 376.26611328 -439.76775391 375.36376953 -439.88330078 374.43408203 C-442.50050919 349.0507457 -439.50873323 324.33981404 -431.54345703 300.16845703 C-431.20556152 299.11634033 -431.20556152 299.11634033 -430.86083984 298.04296875 C-416.15444453 252.94555471 -379.88454139 211.66027125 -337.69482422 190.21533203 C-319.91867661 181.56529561 -301.12781602 176.60287642 -281.54345703 174.16845703 C-281.17994141 172.58871094 -281.17994141 172.58871094 -280.80908203 170.97705078 C-279.74243186 166.36890656 -278.64767644 161.76772804 -277.54345703 157.16845703 C-277.25470703 155.96060547 -276.96595703 154.75275391 -276.66845703 153.50830078 C-266.93869932 114.98019769 -248.6355907 80.47839373 -221.08789062 51.78466797 C-219.57392985 50.20034607 -218.08405193 48.59577064 -216.59423828 46.98876953 C-184.95481287 13.48186384 -139.70531092 -4.81901944 -94.43017578 -9.47216797 C-63.36863693 -13.33909838 -30.05225744 -9.82510931 0 0 Z M-22.10595703 286.10595703 C-23.47880859 286.59128906 -23.47880859 286.59128906 -24.87939453 287.08642578 C-33.2457212 290.16509363 -33.2457212 290.16509363 -40.54345703 295.16845703 C-40.54345703 296.15845703 -40.54345703 297.14845703 -40.54345703 298.16845703 C-34.76290215 301.28464121 -29.2814172 303.28541686 -22.91845703 304.85595703 C-22.09861328 305.06800781 -21.27876953 305.28005859 -20.43408203 305.49853516 C-13.59615178 307.24099809 -7.06156106 308.35768942 0.01904297 308.54345703 C1.93910156 308.61693359 1.93910156 308.61693359 3.89794922 308.69189453 C8.4336187 308.02473788 9.72557677 306.79995688 12.45654297 303.16845703 C15.59682456 295.71816145 17.0113081 288.21255144 16.45654297 280.16845703 C6.27430217 273.90246269 -11.95012466 282.47008703 -22.10595703 286.10595703 Z " fill="#E2E2E2" transform="translate(562.54345703125,186.83154296875)"/>
<path d="M0 0 C-0.61875 0.28875 -1.2375 0.5775 -1.875 0.875 C-4.13325765 1.93720042 -4.13325765 1.93720042 -6 4 C-6 3.34 -6 2.68 -6 2 C-6.81984375 2.22816406 -7.6396875 2.45632812 -8.484375 2.69140625 C-9.56203125 2.97886719 -10.6396875 3.26632813 -11.75 3.5625 C-12.81734375 3.85253906 -13.8846875 4.14257812 -14.984375 4.44140625 C-17.84335927 4.97098494 -19.31597383 4.98370862 -22 4 C-19.4604163 3.32438628 -16.91881165 2.65934172 -14.375 2 C-13.66214844 1.80921875 -12.94929688 1.6184375 -12.21484375 1.421875 C-8.04151456 0.34982713 -4.34821249 -0.21946814 0 0 Z " fill="#DCDCDB" transform="translate(456,180)"/>
<path d="M0 0 C3 1 3 1 3 1 Z " fill="#E3E4E3" transform="translate(545,312)"/>
<path d="M0 0 C3 1 3 1 3 1 Z " fill="#E6E4E5" transform="translate(499,223)"/>
<path d="M0 0 C2 1 2 1 2 1 Z " fill="#E6E7E6" transform="translate(491,718)"/>
<path d="" fill="#E0E0E1" transform="translate(0,0)"/>
<path d="" fill="#E1E2E1" transform="translate(0,0)"/>
<path d="" fill="#E4E5E4" transform="translate(0,0)"/>
<path d="" fill="#E6E6E6" transform="translate(0,0)"/>
<path d="" fill="#E7E6E5" transform="translate(0,0)"/>
<path d="M0 0 C2 1 2 1 2 1 Z " fill="#E5E4E6" transform="translate(729,403)"/>
<path d="M0 0 C2 1 2 1 2 1 Z " fill="#E5E4E5" transform="translate(241,368)"/>
<path d="M0 0 C2 1 2 1 2 1 Z " fill="#E6E5E5" transform="translate(480,328)"/>
<path d="M0 0 C2 1 2 1 2 1 Z " fill="#E5E5E6" transform="translate(496,223)"/>
<path d="M0 0 C2 1 2 1 2 1 Z " fill="#E5E5E5" transform="translate(484,223)"/>
<path d="M0 0 C2 1 2 1 2 1 Z " fill="#E7E6E6" transform="translate(476,223)"/>
<path d="M0 0 C2 1 2 1 2 1 Z " fill="#E2E4E4" transform="translate(466,176)"/>
<path d="" fill="#616262" transform="translate(0,0)"/>
<path d="" fill="#E2E2E1" transform="translate(0,0)"/>
<path d="" fill="#E3E4E3" transform="translate(0,0)"/>
<path d="" fill="#E5E5E7" transform="translate(0,0)"/>
<path d="" fill="#E4E4E3" transform="translate(0,0)"/>
<path d="" fill="#E5E3E4" transform="translate(0,0)"/>
<path d="" fill="#E3E4E3" transform="translate(0,0)"/>
<path d="" fill="#E5E5E7" transform="translate(0,0)"/>
<path d="" fill="#E2E3E3" transform="translate(0,0)"/>
<path d="" fill="#E4E6E6" transform="translate(0,0)"/>
<path d="" fill="#E6E7E6" transform="translate(0,0)"/>
<path d="" fill="#E2E2E3" transform="translate(0,0)"/>
<path d="" fill="#E0E2E2" transform="translate(0,0)"/>
<path d="" fill="#E2E0E2" transform="translate(0,0)"/>
<path d="" fill="#DFE0E2" transform="translate(0,0)"/>
<path d="" fill="#E8E8E8" transform="translate(0,0)"/>
<path d="" fill="#E1E1E0" transform="translate(0,0)"/>
<path d="" fill="#E7E3E6" transform="translate(0,0)"/>
<path d="" fill="#E6E5E8" transform="translate(0,0)"/>
<path d="" fill="#E1E1E0" transform="translate(0,0)"/>
<path d="" fill="#E2E1E0" transform="translate(0,0)"/>
<path d="" fill="#E9E7E6" transform="translate(0,0)"/>
<path d="" fill="#E4E6E5" transform="translate(0,0)"/>
<path d="" fill="#E2E2E2" transform="translate(0,0)"/>
<path d="" fill="#E5E6E7" transform="translate(0,0)"/>
<path d="" fill="#E4E6E4" transform="translate(0,0)"/>
<path d="" fill="#E3E5E6" transform="translate(0,0)"/>
<path d="" fill="#E4E6E7" transform="translate(0,0)"/>
<path d="" fill="#E4E6E3" transform="translate(0,0)"/>
<path d="" fill="#E7E6E5" transform="translate(0,0)"/>
<path d="" fill="#E6E5E7" transform="translate(0,0)"/>
<path d="" fill="#E5E6E7" transform="translate(0,0)"/>
<path d="" fill="#E5E6E7" transform="translate(0,0)"/>
<path d="" fill="#E9E8E7" transform="translate(0,0)"/>
<path d="" fill="#E5E2E3" transform="translate(0,0)"/>
<path d="" fill="#E7E9E7" transform="translate(0,0)"/>
<path d="" fill="#E8E9E8" transform="translate(0,0)"/>
<path d="" fill="#E5E6E4" transform="translate(0,0)"/>
<path d="" fill="#E6E5E4" transform="translate(0,0)"/>
<path d="" fill="#E5E6E5" transform="translate(0,0)"/>
<path d="" fill="#E6E7E9" transform="translate(0,0)"/>
<path d="" fill="#E8E8E6" transform="translate(0,0)"/>
<path d="" fill="#E2E1E1" transform="translate(0,0)"/>
<path d="" fill="#E6E5E7" transform="translate(0,0)"/>
<path d="" fill="#E6E7E4" transform="translate(0,0)"/>
<path d="" fill="#E6E5E7" transform="translate(0,0)"/>
<path d="" fill="#E7E8E5" transform="translate(0,0)"/>
<path d="" fill="#E5E7E8" transform="translate(0,0)"/>
<path d="" fill="#E4E5E6" transform="translate(0,0)"/>
<path d="" fill="#E3E3E6" transform="translate(0,0)"/>
<path d="" fill="#E3E5E4" transform="translate(0,0)"/>
<path d="" fill="#E7E8E8" transform="translate(0,0)"/>
<path d="" fill="#E6E6E7" transform="translate(0,0)"/>
<path d="" fill="#E5E8E7" transform="translate(0,0)"/>
<path d="" fill="#E5E5E3" transform="translate(0,0)"/>
<path d="" fill="#E6E6E5" transform="translate(0,0)"/>
<path d="" fill="#E5E8E6" transform="translate(0,0)"/>
<path d="" fill="#E4E6E4" transform="translate(0,0)"/>
<path d="" fill="#E8E6E6" transform="translate(0,0)"/>
<path d="" fill="#E6E7E6" transform="translate(0,0)"/>
<path d="" fill="#E5E6E5" transform="translate(0,0)"/>
<path d="" fill="#E5E6E8" transform="translate(0,0)"/>
<path d="" fill="#E6E5E6" transform="translate(0,0)"/>
<path d="" fill="#E6E7E5" transform="translate(0,0)"/>
<path d="" fill="#E6E7E8" transform="translate(0,0)"/>
<path d="" fill="#E7E6E7" transform="translate(0,0)"/>
<path d="" fill="#E5E5E5" transform="translate(0,0)"/>
<path d="" fill="#E6E4E5" transform="translate(0,0)"/>
<path d="" fill="#E5E7E7" transform="translate(0,0)"/>
<path d="" fill="#E6E5E6" transform="translate(0,0)"/>
<path d="" fill="#E2E4E5" transform="translate(0,0)"/>
<path d="" fill="#E9E6E6" transform="translate(0,0)"/>
<path d="" fill="#E6E6E5" transform="translate(0,0)"/>
<path d="" fill="#E6E5E7" transform="translate(0,0)"/>
<path d="" fill="#DFDEDD" transform="translate(0,0)"/>
<path d="" fill="#E2E1E2" transform="translate(0,0)"/>
</svg>
