<?xml version="1.0" encoding="UTF-8"?>
<svg version="1.1" xmlns="http://www.w3.org/2000/svg" width="1024" height="1024">
<path d="M0 0 C1.40090067 1.34892379 2.79731449 2.70253592 4.1875 4.0625 C5.49323677 5.19534277 6.80566028 6.32052912 8.125 7.4375 C44.60127884 39.44580091 62.0348612 82.45173043 71.1875 129.0625 C72.03828125 129.17207031 72.8890625 129.28164063 73.765625 129.39453125 C77.13222697 129.8350547 80.49641954 130.2901837 83.86035156 130.75048828 C86.20481198 131.0648211 88.55131984 131.35859228 90.8984375 131.65234375 C120.70853724 135.54816894 150.27742801 146.12225216 173.1875 166.0625 C173.99445312 166.75988281 174.80140625 167.45726562 175.6328125 168.17578125 C178.18989876 170.43226959 180.69375505 172.7362738 183.1875 175.0625 C184.06277344 175.86042969 184.93804688 176.65835938 185.83984375 177.48046875 C213.72031292 203.92091369 228.71864424 243.57839141 230.52734375 281.4765625 C230.58760742 282.56090576 230.64787109 283.64524902 230.70996094 284.76245117 C230.81768644 286.87568769 230.89151022 288.99100257 230.92675781 291.10668945 C231.0791617 296.39975254 231.0791617 296.39975254 233.80712891 300.68847656 C235.87896343 301.97843961 237.98263968 303.01916178 240.1875 304.0625 C241.39297319 304.84539329 242.58171381 305.6548137 243.75 306.4921875 C244.31493164 306.89091064 244.87986328 307.28963379 245.46191406 307.70043945 C271.36532424 326.2704139 285.28391211 351.65207512 290.51098633 383.00268555 C291.4998054 390.30480183 291.37358209 397.69333206 291.37280273 405.0480957 C291.37501139 407.38706081 291.39328487 409.72556973 291.41210938 412.06445312 C291.4150401 413.55989424 291.41702704 415.05533756 291.41796875 416.55078125 C291.42515427 417.24561111 291.43233978 417.94044098 291.43974304 418.65632629 C291.42266956 422.27095884 291.28945131 425.04750059 289.1875 428.0625 C284.70135191 430.30557405 278.57544687 429.28972293 273.58447266 429.30273438 C271.32807456 429.31243306 269.07259022 429.34345187 266.81640625 429.375 C265.38021374 429.38153097 263.94401472 429.38678107 262.5078125 429.390625 C260.54739014 429.40464355 260.54739014 429.40464355 258.54736328 429.41894531 C254.94239167 429.03649665 253.47158569 428.87943273 251.1875 426.0625 C250.79519391 423.46474557 250.65322448 421.27346592 250.68359375 418.67578125 C250.6694619 417.57377632 250.6694619 417.57377632 250.65504456 416.44950867 C250.62637433 414.09105956 250.62331097 411.73360889 250.625 409.375 C250.6295025 387.3248439 250.6295025 387.3248439 243.5625 366.6875 C243.21695068 366.02886963 242.87140137 365.37023926 242.51538086 364.69165039 C233.93718337 349.00563881 219.15147381 338.86873961 202.29296875 333.6484375 C198.94119144 332.71566088 195.56611904 331.89233626 192.1875 331.0625 C190.1875 330.0625 190.1875 330.0625 189.1875 327.0625 C189.05914336 324.95282948 188.98539859 322.83967627 188.94140625 320.7265625 C188.91014648 319.44507324 188.87888672 318.16358398 188.84667969 316.84326172 C188.83133179 316.1651947 188.81598389 315.48712769 188.8001709 314.78851318 C187.88553333 276.48611758 182.98496789 240.69047221 155.1875 212.0625 C154.52621094 211.32773437 153.86492188 210.59296875 153.18359375 209.8359375 C133.95403877 189.18332247 104.97229164 177.53037578 77.1875 176.0625 C75.72763672 175.98128906 75.72763672 175.98128906 74.23828125 175.8984375 C66.44045515 175.67878043 59.00580036 176.68626848 51.34179688 177.99511719 C46.21127407 178.85428588 41.3932834 179.38605591 36.1875 179.0625 C33.50332421 176.37832421 33.6467666 174.51360796 33.171875 170.76953125 C33.00623047 169.50447754 32.84058594 168.23942383 32.66992188 166.93603516 C32.51072266 165.65776855 32.35152344 164.37950195 32.1875 163.0625 C29.25542154 140.37833696 26.12198419 117.30392156 17.1875 96.0625 C16.79038818 95.10633789 16.79038818 95.10633789 16.38525391 94.13085938 C10.29648956 79.6936539 2.1841841 66.22786412 -8.48999023 54.71118164 C-9.8125 53.0625 -9.8125 53.0625 -9.8125 51.0625 C-10.4725 51.0625 -11.1325 51.0625 -11.8125 51.0625 C-11.8125 50.4025 -11.8125 49.7425 -11.8125 49.0625 C-12.8025 48.7325 -13.7925 48.4025 -14.8125 48.0625 C-15.97663393 46.9326053 -17.13522689 45.79645762 -18.265625 44.6328125 C-45.62243813 16.8615022 -85.22640257 3.51266068 -123.5847168 2.82788086 C-167.8444324 2.57246618 -209.96754049 17.89924764 -241.98852539 48.88208008 C-275.26885212 81.86466639 -290.44991426 125.31582873 -296.64453125 171.0078125 C-296.77053711 171.92788086 -296.89654297 172.84794922 -297.02636719 173.79589844 C-297.25162128 175.50265563 -297.46048064 177.21169298 -297.64941406 178.92285156 C-298.07491613 182.257137 -298.61009928 184.74722195 -300.4375 187.59375 C-303.71696415 189.62183967 -306.53644662 189.40533774 -310.25 189.1875 C-338.15641495 188.45000584 -365.37756802 194.4253861 -388.8125 210.0625 C-389.59238281 210.55878906 -390.37226563 211.05507813 -391.17578125 211.56640625 C-398.24635864 216.24629399 -404.31178723 221.88400654 -410.41455078 227.73193359 C-411.52953688 228.79317604 -412.66566885 229.83218853 -413.80859375 230.86328125 C-437.18616842 252.55901601 -450.66715575 288.09737275 -452.03125 319.41015625 C-452.96420541 352.92613916 -442.5218114 386.73308043 -419.75 411.75 C-418.99589844 412.53761719 -418.24179687 413.32523438 -417.46484375 414.13671875 C-415.8125 416.0625 -415.8125 416.0625 -415.8125 418.0625 C-414.98492187 418.4028125 -414.98492187 418.4028125 -414.140625 418.75 C-411.13140573 420.44647261 -409.0259669 422.64032026 -406.5625 425.0625 C-399.67365004 431.57377558 -392.04415987 436.41829314 -383.8125 441.0625 C-383.17328613 441.42472656 -382.53407227 441.78695313 -381.87548828 442.16015625 C-352.95600931 458.24879634 -318.84137079 463.65899562 -286.17041016 464.62011719 C-283.9479301 464.68718525 -281.72600808 464.76524784 -279.50390625 464.84375 C-260.3892874 466.01407242 -260.3892874 466.01407242 -242.8125 460.0625 C-238.72821108 454.65654134 -236.10964238 448.52767349 -233.5625 442.296875 C-233.1819043 441.38222473 -232.80130859 440.46757446 -232.40917969 439.52520752 C-231.2035987 436.62369106 -230.00787012 433.71823587 -228.8125 430.8125 C-228.01107237 428.87863438 -227.2089943 426.94503819 -226.40625 425.01171875 C-224.87438637 421.32073064 -223.34893742 417.62719449 -221.828125 413.93164062 C-220.63003369 411.02514949 -219.41830733 408.12631876 -218.171875 405.24023438 C-217.49898438 403.67499023 -217.49898438 403.67499023 -216.8125 402.078125 C-216.44125 401.23024414 -216.07 400.38236328 -215.6875 399.50878906 C-214.68041086 396.69321061 -214.14658292 394.03212597 -213.8125 391.0625 C-215.92031908 387.37170032 -220.43398767 386.60600319 -224.25 385.3125 C-236.52644035 380.89159821 -246.89391938 374.6657748 -255.8125 365.0625 C-255.8125 364.4025 -255.8125 363.7425 -255.8125 363.0625 C-256.4725 363.0625 -257.1325 363.0625 -257.8125 363.0625 C-259.33178771 361.00842301 -260.71005703 358.97355089 -262.0625 356.8125 C-262.46364014 356.17497803 -262.86478027 355.53745605 -263.27807617 354.88061523 C-272.8238128 339.49914064 -280.36322492 321.84774126 -276.75 303.4375 C-273.56567069 291.43171786 -266.35241009 282.39399437 -255.9375 275.75 C-245.46940988 269.90252805 -234.38323913 268.15313736 -222.625 271.125 C-210.23130204 275.43060286 -202.5314357 284.83526859 -196.14453125 295.7890625 C-193.83159315 299.73665773 -192.20806456 302.41123654 -188 304.375 C-183.52522283 303.93629636 -182.13101016 301.77306729 -179.328125 298.43359375 C-174.4936108 290.87032025 -174.86521621 281.68699751 -176.3125 273.09375 C-178.49039229 264.48117596 -182.4726155 256.7002024 -186.4609375 248.80908203 C-214.00760554 194.25290597 -214.00760554 194.25290597 -207.25 170.3125 C-201.62363159 154.37768038 -191.12289691 142.13876957 -177.8125 132.0625 C-176.62140625 131.09763672 -176.62140625 131.09763672 -175.40625 130.11328125 C-160.81619535 118.7321152 -143.42301873 111.33365166 -125.8125 106.0625 C-125.04744141 105.82837402 -124.28238281 105.59424805 -123.49414062 105.35302734 C-108.88361089 100.98419247 -93.85605066 99.2477994 -78.75439453 97.51660156 C-74.92674013 97.07566033 -71.10206857 96.6140212 -67.27734375 96.1484375 C-64.9142182 95.86847425 -62.55094319 95.58976895 -60.1875 95.3125 C-59.12909912 95.18472168 -58.07069824 95.05694336 -56.98022461 94.92529297 C-51.5942772 94.31855787 -46.20524545 93.88616811 -40.7890625 93.671875 C-39.21632568 93.60178223 -39.21632568 93.60178223 -37.61181641 93.53027344 C-34.8125 94.0625 -34.8125 94.0625 -32.44702148 96.42089844 C-29.91453617 100.51372759 -30.96582029 103.2097381 -31.91796875 107.7421875 C-37.87140172 129.84008282 -50.35731051 143.79341818 -69.8125 155.0625 C-70.77091797 155.6184082 -71.72933594 156.17431641 -72.71679688 156.74707031 C-77.17962282 159.32930872 -81.64705588 161.9033672 -86.11987305 164.46826172 C-107.81766718 176.42485003 -107.81766718 176.42485003 -126.8125 192.0625 C-120.41519272 192.29570233 -115.31866502 191.71047618 -109.25 189.75 C-108.41992432 189.4907373 -107.58984863 189.23147461 -106.73461914 188.96435547 C-103.75289914 188.01934109 -100.7822378 187.04453018 -97.8125 186.0625 C-96.57757812 185.65499512 -95.34265625 185.24749023 -94.0703125 184.82763672 C-68.25134817 176.60184424 -68.25134817 176.60184424 -43.6953125 165.34375 C-40.38187862 163.87111272 -38.39583268 163.50822602 -34.8125 164.0625 C-21.98201337 174.04973168 -12.01126297 195.74148194 -7.8125 211.0625 C-7.54747681 211.9896582 -7.54747681 211.9896582 -7.27709961 212.93554688 C-6.38074773 217.03907685 -6.62324565 221.25407966 -6.625 225.4375 C-6.62218018 226.42322998 -6.61936035 227.40895996 -6.61645508 228.42456055 C-6.64727888 234.05059519 -7.01756023 239.33816355 -8 244.875 C-9.70985684 255.39623588 -5.1630401 261.8133804 0.84033203 270.20019531 C7.87194095 279.92058545 15.03495429 289.54027739 22.25 299.125 C26.59414533 304.89966822 30.88149774 310.71344597 35.125 316.5625 C35.65681885 317.29218994 36.1886377 318.02187988 36.73657227 318.77368164 C46.13843125 331.78671258 46.13843125 331.78671258 46.3125 336.3125 C44.04569637 341.85357555 38.55419244 344.14099938 33.3125 346.4375 C32.30147217 346.88150146 32.30147217 346.88150146 31.27001953 347.33447266 C19.91772737 352.07618525 7.36085031 355.30002841 -4.8125 357.0625 C-5.18684488 362.70646892 -4.20406734 366.09013795 -1.5625 371.0625 C-1.2432959 371.67697998 -0.9240918 372.29145996 -0.59521484 372.92456055 C1.00897733 375.98685028 2.71576253 378.95441888 4.5625 381.875 C6.65169835 385.97304293 7.48927255 389.46250763 7.1875 394.0625 C5.49700315 398.89249101 3.70472608 401.10361894 -0.75 403.5625 C-9.43946206 407.49313412 -18.73614951 410.17274833 -27.8125 413.0625 C-24.78499349 414.70372722 -21.85471972 415.69178856 -18.53125 416.578125 C-17.52449219 416.86042969 -16.51773437 417.14273437 -15.48046875 417.43359375 C-13.37246477 418.01842839 -11.26039983 418.58882224 -9.14453125 419.14453125 C-0.55902875 421.59596154 -0.55902875 421.59596154 1.90234375 425.02734375 C3.7990935 429.50690166 3.50228094 432.44547856 2.1875 437.0625 C-0.22177701 442.68414637 -3.64622265 447.37780275 -7.67578125 451.9453125 C-11.35289644 458.79409748 -7.09648356 467.74277752 -5.03320312 474.6171875 C-2.20402452 484.4068272 -0.20575903 493.56109675 -4.8125 503.0625 C-8.39997901 509.04163168 -14.22718969 511.50482195 -20.75 513.3125 C-49.72852065 518.78293502 -83.76596793 508.03104575 -112.03515625 501.86328125 C-113.28671257 501.59022911 -113.28671257 501.59022911 -114.56355286 501.31166077 C-118.56837418 500.43453996 -122.57016573 499.54566386 -126.56860352 498.63989258 C-134.29279775 496.90805446 -141.88248451 495.46188403 -149.8125 495.0625 C-145.71485842 500.37835935 -141.3741493 503.97092874 -135.89453125 507.81640625 C-132.4490813 510.32734887 -129.18689724 512.99304819 -125.9375 515.75 C-125.4024585 516.20149414 -124.86741699 516.65298828 -124.31616211 517.11816406 C-120.9910863 519.95825701 -117.89249835 522.96151358 -114.8125 526.0625 C-113.884375 526.805 -112.95625 527.5475 -112 528.3125 C-108.96732521 532.12500545 -109.3644901 535.41635281 -109.8125 540.0625 C-110.61267056 544.39584233 -111.69312146 548.63952438 -112.8046875 552.90234375 C-113.11068878 554.10564835 -113.41669006 555.30895294 -113.73196411 556.54872131 C-114.37751001 559.07717957 -115.02831239 561.60430098 -115.68408203 564.13012695 C-116.35591352 566.72117341 -117.02290619 569.3127636 -117.68017578 571.9074707 C-118.63037701 575.65785388 -119.59054408 579.40552316 -120.5546875 583.15234375 C-120.85059784 584.31684555 -121.14650818 585.48134735 -121.4513855 586.68113708 C-121.73152496 587.75307816 -122.01166443 588.82501923 -122.30029297 589.92944336 C-122.66669388 591.3476664 -122.66669388 591.3476664 -123.04049683 592.79454041 C-123.8125 595.0625 -123.8125 595.0625 -125.8125 597.0625 C-128.5 597.625 -128.5 597.625 -131.8125 597.0625 C-136.90387329 593.00158637 -140.78323331 587.68436144 -144.5625 582.4375 C-150.00847246 575.02787287 -155.78229368 568.00058207 -161.8125 561.0625 C-162.47121094 560.29164063 -163.12992187 559.52078125 -163.80859375 558.7265625 C-170.02216512 551.50276683 -176.48049839 545.22877679 -184.25 539.6875 C-185.03060791 539.12804687 -185.81121582 538.56859375 -186.61547852 537.9921875 C-194.04104629 532.75714346 -201.7392633 528.21724111 -209.8125 524.0625 C-211.25496094 523.31033203 -211.25496094 523.31033203 -212.7265625 522.54296875 C-222.4656989 517.78831662 -232.89891732 515.22861582 -243.62890625 514.00390625 C-244.7236451 513.87742203 -244.7236451 513.87742203 -245.84049988 513.74838257 C-253.58944907 512.90312127 -261.34637612 512.58499573 -269.13201904 512.28674316 C-298.18986202 511.1299785 -326.64150904 508.59264405 -354.8125 501.0625 C-356.30952567 500.69121263 -357.80689109 500.32129083 -359.3046875 499.953125 C-387.74676125 492.63186856 -415.1589383 477.10764526 -436.609375 457.11328125 C-438.69086844 455.17572087 -440.8287636 453.33560635 -443 451.5 C-447.00836442 447.98669254 -450.43445866 444.17927802 -453.8125 440.0625 C-454.63621094 439.07636719 -455.45992187 438.09023438 -456.30859375 437.07421875 C-486.36661662 400.44557383 -500.61681534 353.56510753 -496.34765625 306.39453125 C-490.90615981 255.40537387 -463.36029928 209.92898263 -423.94921875 177.72265625 C-416.01493214 171.37844173 -407.69527508 165.9819146 -398.8125 161.0625 C-397.87132324 160.54042969 -397.87132324 160.54042969 -396.91113281 160.0078125 C-379.26662441 150.37530509 -358.17596237 142.0625 -337.8125 142.0625 C-337.68294922 140.87720703 -337.68294922 140.87720703 -337.55078125 139.66796875 C-330.93804602 86.58408499 -299.75011286 35.05131187 -258.57421875 1.3203125 C-255.70771345 -0.85962793 -252.79317831 -2.91683236 -249.8125 -4.9375 C-248.64265672 -5.76220942 -247.47341508 -6.58777274 -246.3046875 -7.4140625 C-237.54869143 -13.51704143 -228.47995504 -18.44271208 -218.8125 -22.9375 C-218.17231934 -23.24284668 -217.53213867 -23.54819336 -216.87255859 -23.86279297 C-150.09534865 -55.61544954 -56.42951096 -50.56222236 0 0 Z M-65.4375 251.1875 C-66.77301854 251.69529886 -68.10912326 252.20155865 -69.44580078 252.70629883 C-72.0577347 253.69521438 -74.66616962 254.69250772 -77.27148438 255.69873047 C-81.04584452 257.15236917 -84.83153612 258.57250259 -88.62255859 259.98193359 C-91.35633054 260.99877523 -94.08469712 262.02976952 -96.8125 263.0625 C-96.8125 264.0525 -96.8125 265.0425 -96.8125 266.0625 C-89.61705332 269.16275053 -82.41022337 271.42271094 -74.8125 273.3125 C-73.79671875 273.580625 -72.7809375 273.84875 -71.734375 274.125 C-65.52298978 275.68580962 -59.2160592 277.23301929 -52.8125 276.0625 C-47.29654828 272.50357772 -45.60540374 266.4312872 -43.4375 260.5 C-43.07011719 259.55447266 -42.70273437 258.60894531 -42.32421875 257.63476562 C-39.99655926 251.94706464 -39.99655926 251.94706464 -40.8125 246.0625 C-49.80652414 245.09407429 -57.21704426 247.97725286 -65.4375 251.1875 Z " fill="#E5E5E5" transform="translate(618.8125,218.9375)"/>
<path d="M0 0 C0.84432587 -0.0021904 1.68865173 -0.0043808 2.55856323 -0.00663757 C5.34730297 -0.00894767 8.13498513 0.01730037 10.92358398 0.04418945 C12.86123825 0.04911311 14.79889727 0.05241215 16.73655701 0.05415344 C20.79604294 0.06179355 24.8551763 0.08235543 28.91455078 0.11328125 C34.12235182 0.15288236 39.32992356 0.1708944 44.53785801 0.18059063 C49.49979783 0.19055741 54.4616815 0.21044946 59.42358398 0.23168945 C60.37286837 0.2350852 61.32215275 0.23848095 62.30020332 0.2419796 C64.98145373 0.25353986 67.66255818 0.27205824 70.34375 0.29296875 C71.14019424 0.29565765 71.93663849 0.29834656 72.75721741 0.30111694 C75.96508041 0.3325436 78.54208028 0.44827155 81.60717773 1.4699707 C83.18105539 6.19160366 82.87430492 10.96183433 82.91967773 15.9074707 C82.96318359 17.48238281 82.96318359 17.48238281 83.00756836 19.08911133 C83.01594727 20.10038086 83.02432617 21.11165039 83.03295898 22.15356445 C83.0475415 23.07709717 83.06212402 24.00062988 83.07714844 24.95214844 C82.45237104 28.2993325 81.22452699 29.33875602 78.60717773 31.4699707 C76.16549683 31.93753052 76.16549683 31.93753052 73.41137695 31.89233398 C72.37705536 31.88557648 71.34273376 31.87881897 70.27706909 31.87185669 C69.16655182 31.84493744 68.05603455 31.81801819 66.91186523 31.7902832 C65.76807404 31.77988007 64.62428284 31.76947693 63.4458313 31.75875854 C59.79076474 31.72311503 56.1368165 31.66075516 52.48217773 31.5949707 C48.82050769 31.5398034 45.15899239 31.49039956 41.49710083 31.4526062 C39.21772047 31.42802021 36.9384265 31.39274334 34.65939331 31.34597778 C33.63137604 31.33291595 32.60335876 31.31985413 31.54418945 31.30639648 C30.63692108 31.28989044 29.72965271 31.2733844 28.79489136 31.25637817 C26.39705445 31.25672701 26.39705445 31.25672701 24.60717773 33.4699707 C24.43178337 36.41093807 24.37585398 39.25650419 24.41186523 42.1965332 C24.41611008 43.49075699 24.41611008 43.49075699 24.42044067 44.81112671 C24.43165441 47.5725479 24.4567609 50.3336472 24.48217773 53.0949707 C24.492206 54.96475769 24.50133212 56.83454976 24.50952148 58.7043457 C24.53159761 63.29301179 24.56613539 67.88143663 24.60717773 72.4699707 C25.27925262 72.47805756 25.95132751 72.48614441 26.64376831 72.49447632 C33.61891073 72.58032354 40.59376243 72.67981774 47.56860352 72.78735352 C50.17402272 72.82571153 52.77949613 72.86055216 55.38500977 72.8918457 C59.12332576 72.93734822 62.86126638 72.99536696 66.59936523 73.0559082 C67.77022675 73.06745941 68.94108826 73.07901062 70.14743042 73.09091187 C71.76888474 73.1207164 71.76888474 73.1207164 73.4230957 73.15112305 C74.37795868 73.16444672 75.33282166 73.17777039 76.31661987 73.1914978 C78.60717773 73.4699707 78.60717773 73.4699707 80.60717773 75.4699707 C82.04323238 81.63290039 81.68177062 88.13692628 81.35717773 94.4074707 C81.31657227 95.68074219 81.31657227 95.68074219 81.27514648 96.97973633 C81.21520508 98.195 81.21520508 98.195 81.15405273 99.43481445 C81.10522949 100.52717407 81.10522949 100.52717407 81.05541992 101.64160156 C80.60717773 103.4699707 80.60717773 103.4699707 77.60717773 105.4699707 C75.23432922 105.7484436 75.23432922 105.7484436 72.40136719 105.78881836 C71.34049393 105.80868805 70.27962067 105.82855774 69.18659973 105.84902954 C68.04277328 105.86058075 66.89894684 105.87213196 65.72045898 105.8840332 C64.54831345 105.90339935 63.37616791 105.9227655 62.16850281 105.94271851 C58.41896883 106.00257267 54.66940426 106.04892353 50.91967773 106.0949707 C48.37995069 106.13314506 45.84023666 106.17219646 43.30053711 106.2121582 C37.06948446 106.30993216 30.83857316 106.38945624 24.60717773 106.4699707 C24.27717773 120.9899707 23.94717773 135.5099707 23.60717773 150.4699707 C27.84303711 150.43516602 32.07889648 150.40036133 36.44311523 150.36450195 C39.81555922 150.34521604 43.18798767 150.32894522 46.56045532 150.31472015 C50.12334209 150.29886217 53.68601563 150.27766319 57.2487793 150.24365234 C61.33441255 150.20489311 65.41981915 150.19027437 69.50561523 150.17700195 C70.78584564 150.1615181 72.06607605 150.14603424 73.38510132 150.13008118 C74.56617462 150.12985458 75.74724792 150.12962799 76.96411133 150.12939453 C78.52964249 150.11940178 78.52964249 150.11940178 80.12680054 150.10920715 C80.94532501 150.22825912 81.76384949 150.3473111 82.60717773 150.4699707 C85.84770281 155.33075832 84.97602446 160.69415233 84.98217773 166.4074707 C85.00666992 167.60049805 85.03116211 168.79352539 85.05639648 170.02270508 C85.06026367 171.16932617 85.06413086 172.31594727 85.06811523 173.49731445 C85.07633301 174.54653076 85.08455078 175.59574707 85.09301758 176.67675781 C84.45815275 180.32675204 83.5776715 181.26398413 80.60717773 183.4699707 C77.65783257 183.85426882 75.08528682 183.99709676 72.13842773 183.95581055 C71.28595459 183.95960724 70.43348145 183.96340393 69.55517578 183.96731567 C66.73880151 183.97472185 63.92346024 183.95333798 61.10717773 183.9309082 C59.14949668 183.9285237 57.1918133 183.92761847 55.23413086 183.9281311 C51.13177153 183.92500297 47.02976166 183.90843668 42.92749023 183.8815918 C37.66815787 183.84761205 32.40920955 183.83996324 27.14978027 183.84148216 C23.10746594 183.84093838 19.06523561 183.8299698 15.02294922 183.81547928 C13.08366532 183.80911354 11.1443719 183.80517291 9.20507812 183.80369186 C6.49519634 183.7993565 3.78572199 183.78185039 1.07592773 183.76049805 C-0.12737183 183.7618576 -0.12737183 183.7618576 -1.35498047 183.76324463 C-8.32747462 183.68289056 -8.32747462 183.68289056 -11.39282227 181.4699707 C-12.86546479 178.52468566 -12.52904158 175.90187 -12.53999329 172.61270142 C-12.54366997 171.89919317 -12.54734666 171.18568492 -12.55113477 170.45055521 C-12.56219215 168.04767741 -12.56601888 165.64484282 -12.56982422 163.24194336 C-12.57608723 161.52402101 -12.58273388 159.80610003 -12.58973694 158.08818054 C-12.60715965 153.4125644 -12.61770177 148.73695849 -12.62594247 144.06131792 C-12.63108903 141.14224983 -12.63716486 138.22318494 -12.6434536 135.30411911 C-12.66250765 126.17701879 -12.67673936 117.04992659 -12.68506557 107.9228102 C-12.69484534 97.3756211 -12.72118324 86.82864146 -12.76156646 76.28152621 C-12.7916869 68.13626601 -12.80653049 59.991066 -12.80984658 51.84575117 C-12.81220138 46.97742198 -12.82121758 42.10931652 -12.84630775 37.24104691 C-12.86952295 32.66261085 -12.87384828 28.08454685 -12.86354637 23.50606728 C-12.86304933 21.82422336 -12.86941922 20.14236153 -12.88310242 18.4605732 C-12.90072147 16.16700111 -12.89376598 13.87477884 -12.88056946 11.58120728 C-12.88295781 10.29698191 -12.88534616 9.01275654 -12.88780689 7.68961525 C-12.39282227 4.4699707 -12.39282227 4.4699707 -10.59756851 2.05600262 C-7.26795285 -0.33922845 -3.94556739 -0.06362245 0 0 Z " fill="#E4E5E5" transform="translate(759.392822265625,603.530029296875)"/>
<path d="M0 0 C1.19496094 -0.00257813 2.38992188 -0.00515625 3.62109375 -0.0078125 C4.87019531 -0.00007812 6.11929688 0.00765625 7.40625 0.015625 C9.27990234 0.00402344 9.27990234 0.00402344 11.19140625 -0.0078125 C12.98384766 -0.00394531 12.98384766 -0.00394531 14.8125 0 C16.45702148 0.00338379 16.45702148 0.00338379 18.13476562 0.00683594 C20.90625 0.265625 20.90625 0.265625 23.90625 2.265625 C24.28656673 4.67745686 24.28656673 4.67745686 24.29393005 7.77156067 C24.30383469 8.94191864 24.31373932 10.11227661 24.32394409 11.31809998 C24.31944244 12.60893997 24.3149408 13.89977997 24.31030273 15.22973633 C24.31600315 16.59808918 24.32296613 17.96643728 24.33110046 19.33477783 C24.3491011 23.06068813 24.34784853 26.78636375 24.34215808 30.51230454 C24.33907063 33.6277984 24.34515499 36.7432469 24.35119683 39.85873431 C24.36526823 47.22055831 24.36366417 54.58226639 24.35229492 61.9440918 C24.34086058 69.51480949 24.35480389 77.085171 24.3816914 84.65584165 C24.40394341 91.16730919 24.41046306 97.67866575 24.40461498 104.19016856 C24.40126077 108.0734121 24.40355491 111.95642838 24.42086601 115.83963966 C24.43648086 119.50300881 24.43222128 123.16585868 24.41356087 126.82920837 C24.40819023 128.79359272 24.4222854 130.75800117 24.43725586 132.72233582 C24.31598923 147.53673459 19.59651275 160.59349469 9.58203125 171.6171875 C-2.7519647 183.74992944 -16.67659736 188.67428253 -33.67260742 188.63354492 C-41.45915012 188.49714305 -47.91377234 187.44742268 -55.09375 184.265625 C-55.89554688 183.915 -56.69734375 183.564375 -57.5234375 183.203125 C-64.73587217 179.60938593 -71.62022754 173.97590869 -76.09375 167.265625 C-75.78244031 163.50471821 -74.65816358 161.25535076 -72.328125 158.33984375 C-71.76738281 157.62505859 -71.20664062 156.91027344 -70.62890625 156.17382812 C-70.03980469 155.44099609 -69.45070313 154.70816406 -68.84375 153.953125 C-67.68918827 152.50149065 -66.53811353 151.04707576 -65.390625 149.58984375 C-64.83052734 148.87876465 -64.27042969 148.16768555 -63.69335938 147.43505859 C-61.6675478 144.68759803 -59.97718114 141.80083476 -58.34082031 138.80786133 C-57.09375 137.265625 -57.09375 137.265625 -55.07568359 136.44213867 C-53.09375 136.265625 -53.09375 136.265625 -51.0546875 137.921875 C-49.18867695 140.15216649 -47.43223507 142.416622 -45.71875 144.765625 C-41.5673672 150.10186336 -38.02722593 153.18458455 -31.21875 154.265625 C-25.96104457 154.58978428 -22.30619661 153.39915989 -18.09375 150.265625 C-12.18631767 144.7640468 -10.33334362 138.37540517 -9.96346474 130.4870491 C-9.96090864 129.52913845 -9.95835255 128.5712278 -9.95571899 127.58428955 C-9.95026566 126.4766777 -9.94481232 125.36906586 -9.93919373 124.22789001 C-9.9381514 123.02765701 -9.93710907 121.82742401 -9.93603516 120.59082031 C-9.92823673 118.63323079 -9.92043423 116.67564127 -9.91247725 114.71805239 C-9.90478534 112.62260604 -9.8993908 110.52716398 -9.89451981 108.43170929 C-9.88380802 104.06199668 -9.86355857 99.69236057 -9.84140015 95.32269287 C-9.7795702 82.90054801 -9.7253686 70.47840989 -9.69238281 58.05615234 C-9.67406678 51.18839191 -9.64517876 44.3207618 -9.6043781 37.45309711 C-9.58327565 33.82015128 -9.56784611 30.1873698 -9.56557083 26.55435944 C-9.56303463 22.51033946 -9.53762645 18.46677965 -9.51025391 14.42285156 C-9.51476311 12.61035667 -9.51476311 12.61035667 -9.5193634 10.76124573 C-9.50272392 9.1167469 -9.50272392 9.1167469 -9.48574829 7.43902588 C-9.48243814 6.48262333 -9.479128 5.52622078 -9.47571754 4.54083633 C-9.34966825 3.79001659 -9.22361897 3.03919685 -9.09375 2.265625 C-5.59245264 -0.06857324 -4.13913161 0.00851673 0 0 Z " fill="#E4E4E4" transform="translate(699.09375,603.734375)"/>
<path d="M0 0 C1.19496094 -0.00257813 2.38992188 -0.00515625 3.62109375 -0.0078125 C4.87019531 -0.00007812 6.11929688 0.00765625 7.40625 0.015625 C9.27990234 0.00402344 9.27990234 0.00402344 11.19140625 -0.0078125 C12.98384766 -0.00394531 12.98384766 -0.00394531 14.8125 0 C15.90884766 0.00225586 17.00519531 0.00451172 18.13476562 0.00683594 C20.90625 0.265625 20.90625 0.265625 23.90625 2.265625 C24.28656673 4.67745686 24.28656673 4.67745686 24.29393005 7.77156067 C24.30383469 8.94191864 24.31373932 10.11227661 24.32394409 11.31809998 C24.31944244 12.60893997 24.3149408 13.89977997 24.31030273 15.22973633 C24.31600315 16.59808918 24.32296613 17.96643728 24.33110046 19.33477783 C24.3491011 23.06068813 24.34784853 26.78636375 24.34215808 30.51230454 C24.33907063 33.6277984 24.34515499 36.7432469 24.35119683 39.85873431 C24.36526823 47.22055831 24.36366417 54.58226639 24.35229492 61.9440918 C24.34086058 69.51480949 24.35480389 77.085171 24.3816914 84.65584165 C24.40394341 91.16730919 24.41046306 97.67866575 24.40461498 104.19016856 C24.40126077 108.0734121 24.40355491 111.95642838 24.42086601 115.83963966 C24.43648086 119.50300881 24.43222128 123.16585868 24.41356087 126.82920837 C24.40819023 128.79359272 24.4222854 130.75800117 24.43725586 132.72233582 C24.3464258 143.81848519 22.00314471 153.90253669 15.90625 163.265625 C15.57625 162.605625 15.24625 161.945625 14.90625 161.265625 C15.79870241 158.96061546 16.74123235 156.75281852 17.78125 154.515625 C20.77788655 148.05712066 22.03299891 142.43593031 22.02650452 135.30508423 C22.02787918 134.13568298 22.02925385 132.96628174 22.03067017 131.76144409 C22.02707489 130.49261383 22.02347961 129.22378357 22.01977539 127.91650391 C22.01949307 126.55603029 22.01965212 125.19555653 22.0202179 123.83508301 C22.02050413 120.15372409 22.01463546 116.47239794 22.00764394 112.79104662 C22.0013815 108.93934325 22.00080431 105.08763908 21.99961853 101.2359314 C21.99651373 93.94751792 21.98831183 86.65911949 21.97826904 79.37071264 C21.96708145 71.07085441 21.96159079 62.77099546 21.95657361 54.47113156 C21.9461285 37.40261919 21.92779361 20.33412753 21.90625 3.265625 C12.66625 3.265625 3.42625 3.265625 -6.09375 3.265625 C-6.1030957 7.10533936 -6.11244141 10.94505371 -6.12207031 14.90112305 C-6.15590669 27.61771597 -6.21129389 40.33413948 -6.27765274 53.05060101 C-6.3173462 60.7571259 -6.34978763 68.46355012 -6.36474609 76.17016602 C-6.37781319 82.89263438 -6.40490553 89.61488031 -6.44836307 96.33722335 C-6.4708652 99.89183419 -6.48666752 103.44617185 -6.48563385 107.00086021 C-6.48473992 110.9835496 -6.51517949 114.96544234 -6.54785156 118.94799805 C-6.54030602 120.68725807 -6.54030602 120.68725807 -6.53260803 122.46165466 C-6.65752238 132.36745771 -8.10320773 143.55888002 -15.40625 150.8984375 C-20.87268079 155.32725874 -25.76905263 156.87693846 -32.81640625 156.60546875 C-35.76132642 156.16600382 -37.77873505 155.11763696 -40.09375 153.265625 C-39.43375 152.935625 -38.77375 152.605625 -38.09375 152.265625 C-37.248125 152.595625 -36.4025 152.925625 -35.53125 153.265625 C-30.28917463 154.79059238 -25.80227402 154.64616017 -20.87890625 152.13671875 C-15.06250394 148.16163561 -11.88958506 143.40081439 -10.55916405 136.48789597 C-10.12265688 133.46576031 -9.96385744 130.63421638 -9.95571899 127.58428955 C-9.95026566 126.4766777 -9.94481232 125.36906586 -9.93919373 124.22789001 C-9.93763023 122.42754051 -9.93763023 122.42754051 -9.93603516 120.59082031 C-9.92823673 118.63323079 -9.92043423 116.67564127 -9.91247725 114.71805239 C-9.90478534 112.62260604 -9.8993908 110.52716398 -9.89451981 108.43170929 C-9.88380802 104.06199668 -9.86355857 99.69236057 -9.84140015 95.32269287 C-9.7795702 82.90054801 -9.7253686 70.47840989 -9.69238281 58.05615234 C-9.67406678 51.18839191 -9.64517876 44.3207618 -9.6043781 37.45309711 C-9.58327565 33.82015128 -9.56784611 30.1873698 -9.56557083 26.55435944 C-9.56303463 22.51033946 -9.53762645 18.46677965 -9.51025391 14.42285156 C-9.51326004 13.21452164 -9.51626617 12.00619171 -9.5193634 10.76124573 C-9.50827042 9.66491318 -9.49717743 8.56858063 -9.48574829 7.43902588 C-9.48243814 6.48262333 -9.479128 5.52622078 -9.47571754 4.54083633 C-9.34966825 3.79001659 -9.22361897 3.03919685 -9.09375 2.265625 C-5.59245264 -0.06857324 -4.13913161 0.00851673 0 0 Z " fill="#F1F1F1" transform="translate(699.09375,603.734375)"/>
<path d="M0 0 C2.94403736 2.94403736 2.91833936 6.43944812 3.5078125 10.41015625 C3.63815887 11.25162704 3.76850525 12.09309784 3.90280151 12.96006775 C4.17733213 14.74579683 4.44773608 16.53216441 4.71435547 18.3190918 C5.11998972 21.02902765 5.54135786 23.73616281 5.96484375 26.44335938 C6.23012234 28.18214613 6.49447391 29.92107462 6.7578125 31.66015625 C6.88278107 32.46050797 7.00774963 33.26085968 7.13650513 34.08546448 C7.92369923 39.4433989 8.10736615 44.58408698 8 50 C14.5256914 50.19948557 20.78817981 49.8525911 27.25 49 C35.21543258 47.9565875 42.97067015 47.78962455 51 48 C50.505 48.99 50.505 48.99 50 50 C49.29359375 49.96519531 48.5871875 49.93039062 47.859375 49.89453125 C39.74403303 49.68043303 32.14549168 50.56628529 24.15722656 51.93286133 C19.02550993 52.79069596 14.20683797 53.32362145 9 53 C6.32447093 50.32447093 6.47198126 48.50285556 6.00390625 44.76953125 C5.83906738 43.50705566 5.67422852 42.24458008 5.50439453 40.94384766 C5.33794434 39.64237793 5.17149414 38.3409082 5 37 C4.65958156 34.60740906 4.31462876 32.2154583 3.96484375 29.82421875 C3.62239583 27.4453125 3.27994792 25.06640625 2.9375 22.6875 C2.76412109 21.49060547 2.59074219 20.29371094 2.41210938 19.06054688 C1.50058193 12.71477915 0.66295425 6.37666307 0 0 Z " fill="#F3F2F2" transform="translate(646,345)"/>
<path d="M0 0 C7.6580332 -0.06943717 15.31603387 -0.12277913 22.97430992 -0.15543652 C26.53018671 -0.17110864 30.08584852 -0.19237444 33.64160156 -0.22631836 C37.72723482 -0.26507759 41.81264141 -0.27969633 45.8984375 -0.29296875 C47.17866791 -0.30845261 48.45889832 -0.32393646 49.77792358 -0.33988953 C50.95899689 -0.34011612 52.14007019 -0.34034271 53.35693359 -0.34057617 C54.92246475 -0.35056892 54.92246475 -0.35056892 56.5196228 -0.36076355 C57.33814728 -0.24171158 58.15667175 -0.12265961 59 0 C61.30240295 3.45360443 61.25691777 4.80499384 61.265625 8.875 C61.26949219 10.59976563 61.26949219 10.59976563 61.2734375 12.359375 C61.26570312 13.56078125 61.25796875 14.7621875 61.25 16 C61.26160156 17.80210937 61.26160156 17.80210937 61.2734375 19.640625 C61.27085937 20.79046875 61.26828125 21.9403125 61.265625 23.125 C61.26336914 24.17945313 61.26111328 25.23390625 61.25878906 26.3203125 C61 29 61 29 59 32 C58.34 31.67 57.68 31.34 57 31 C57.495 30.505 57.495 30.505 58 30 C58.09983058 28.01242972 58.13080753 26.0213248 58.1328125 24.03125 C58.13410156 22.82082031 58.13539063 21.61039063 58.13671875 20.36328125 C58.13091797 18.45095703 58.13091797 18.45095703 58.125 16.5 C58.12886719 15.22511719 58.13273438 13.95023438 58.13671875 12.63671875 C58.13542969 11.42628906 58.13414062 10.21585938 58.1328125 8.96875 C58.13112061 7.28942383 58.13112061 7.28942383 58.12939453 5.57617188 C58.29216368 3.06858198 58.29216368 3.06858198 57 2 C55.22096643 1.87677242 53.43713797 1.82210981 51.65405273 1.79467773 C50.5129454 1.77473251 49.37183807 1.75478729 48.19615173 1.73423767 C46.33368553 1.70916893 46.33368553 1.70916893 44.43359375 1.68359375 C43.16983414 1.66281265 41.90607452 1.64203156 40.60401917 1.62062073 C37.23881367 1.56616286 33.87359827 1.5159572 30.50830078 1.46777344 C27.07644099 1.41760241 23.64467169 1.36189345 20.21289062 1.30664062 C13.47533239 1.19929809 6.73770664 1.09755675 0 1 C0 0.67 0 0.34 0 0 Z " fill="#EFEFEE" transform="translate(783,754)"/>
<path d="M0 0 C0.33 0 0.66 0 1 0 C0.55566235 7.53841807 -0.30188333 15.01886441 -1.3125 22.5 C-1.41796143 23.37237305 -1.52342285 24.24474609 -1.63208008 25.14355469 C-2.15127636 28.8060414 -2.6397576 31.43169397 -4.63671875 34.58203125 C-7.92233783 36.5534027 -10.79928272 36.38553169 -14.5 36.1875 C-16.00898292 36.1448008 -17.51811876 36.10727327 -19.02734375 36.07421875 C-19.82640137 36.05536621 -20.62545898 36.03651367 -21.44873047 36.01708984 C-25.99460988 35.98663898 -30.52490428 36.2481374 -35.0625 36.5 C-35.949375 36.54793701 -36.83625 36.59587402 -37.75 36.64526367 C-39.83353779 36.75985002 -41.91680396 36.8793599 -44 37 C-44 36.67 -44 36.34 -44 36 C-34.93773224 33.54994064 -26.02989094 33.62039975 -16.68945312 33.52148438 C-15.47322266 33.49505859 -14.25699219 33.46863281 -13.00390625 33.44140625 C-11.89861572 33.42795166 -10.7933252 33.41449707 -9.65454102 33.40063477 C-8.34054321 33.20232056 -8.34054321 33.20232056 -7 33 C-4.88637344 29.82956016 -4.52355995 28.11992462 -3.96484375 24.4140625 C-3.71057617 22.77050781 -3.71057617 22.77050781 -3.45117188 21.09375 C-3.1969043 19.37671875 -3.1969043 19.37671875 -2.9375 17.625 C-2.59317937 15.36707584 -2.24815292 13.10925917 -1.90234375 10.8515625 C-1.75273193 9.84947754 -1.60312012 8.84739258 -1.44897461 7.81494141 C-1.0308042 5.19313347 -0.54021491 2.59909671 0 0 Z " fill="#F3F2F2" transform="translate(323,372)"/>
<path d="M0 0 C0.95630865 3.04199458 0.99772558 5.01104277 0.22729492 8.09423828 C0.03346725 8.88831085 -0.16036041 9.68238342 -0.36006165 10.5005188 C-0.6864991 11.77256668 -0.6864991 11.77256668 -1.01953125 13.0703125 C-1.34747932 14.38647049 -1.34747932 14.38647049 -1.68205261 15.72921753 C-2.14587782 17.58120157 -2.61436068 19.43202446 -3.0871582 21.28173828 C-3.81082578 24.11843723 -4.51680324 26.95912046 -5.22070312 29.80078125 C-5.67343156 31.59922237 -6.12717322 33.39740881 -6.58203125 35.1953125 C-6.89935966 36.47343307 -6.89935966 36.47343307 -7.22309875 37.77737427 C-7.4263829 38.56514252 -7.62966705 39.35291077 -7.83911133 40.16455078 C-8.01533524 40.85864044 -8.19155914 41.5527301 -8.37312317 42.26785278 C-9 44 -9 44 -11 46 C-13.6875 46.5625 -13.6875 46.5625 -17 46 C-20.92733849 42.96296917 -24.21325741 39.09815087 -27 35 C-26.67 34.34 -26.34 33.68 -26 33 C-25.40832031 33.721875 -24.81664062 34.44375 -24.20703125 35.1875 C-23.02173828 36.5796875 -23.02173828 36.5796875 -21.8125 38 C-20.64654297 39.3921875 -20.64654297 39.3921875 -19.45703125 40.8125 C-17.19409582 43.25152614 -17.19409582 43.25152614 -14.19921875 43.3125 C-13.11060547 43.1578125 -13.11060547 43.1578125 -12 43 C-9.93489674 37.76140473 -8.32005764 32.63268563 -7.125 27.125 C-5.06554656 17.99208447 -2.56869011 9.00094282 0 0 Z " fill="#F0EFEF" transform="translate(504,770)"/>
<path d="M0 0 C4.09777196 1.65696832 7.0240001 4.57459606 10.1875 7.5625 C11.0535083 8.37485107 11.0535083 8.37485107 11.93701172 9.20361328 C13.0974751 10.29625109 14.25540034 11.3915915 15.41064453 12.48974609 C16.75517475 13.76735961 18.10899828 15.03518223 19.46484375 16.30078125 C28.56556959 25.0394529 36.30713234 35.32529968 43 46 C42.505 46.99 42.505 46.99 42 48 C41.23816406 46.97261719 40.47632813 45.94523437 39.69140625 44.88671875 C28.12108843 29.33092275 16.24908995 14.63016977 1.29296875 2.171875 C0.86628906 1.78515625 0.43960938 1.3984375 0 1 C0 0.67 0 0.34 0 0 Z " fill="#F2F1F0" transform="translate(616,218)"/>
<path d="M0 0 C6.45366744 8.00557574 8.46571414 16.77261924 8.5 26.8125 C8.50604248 27.60019775 8.51208496 28.38789551 8.51831055 29.19946289 C8.33943089 37.573322 5.79274922 43.91761332 0 50 C-3 52 -3 52 -5.5625 51.6875 C-8 51 -8 51 -10 50 C-9.67 49.34 -9.34 48.68 -9 48 C-8.154375 48.33 -7.30875 48.66 -6.4375 49 C-3.04587777 49.35710583 -3.04587777 49.35710583 -1.11328125 47.49609375 C5.36062197 40.34358432 6.39799621 34.10181504 6.2578125 24.609375 C5.7860051 18.00407142 3.96030113 12.03950828 1.3125 6 C0 3 0 3 0 0 Z " fill="#F2F2F1" transform="translate(437,474)"/>
<path d="M0 0 C0.66 0.33 1.32 0.66 2 1 C1.09121094 1.76441406 0.18242187 2.52882812 -0.75390625 3.31640625 C-13.22494018 13.90489356 -25.24799525 24.9378078 -35.265625 37.92578125 C-37 40 -37 40 -40 42 C-35.50503158 31.94358411 -26.13661098 23.81971067 -18.4375 16.1875 C-17.54353516 15.28580078 -16.64957031 14.38410156 -15.72851562 13.45507812 C-10.76880089 8.50987609 -5.76968922 3.98123833 0 0 Z " fill="#F2F2F1" transform="translate(365,217)"/>
<path d="M0 0 C-12.87 4.455 -12.87 4.455 -26 9 C-22.32326162 10.83836919 -18.95007553 11.93651813 -15 13 C-15 13.33 -15 13.66 -15 14 C-19.97093824 13.58846263 -24.44508386 13.20399168 -29 11 C-28.97265625 9.16015625 -28.97265625 9.16015625 -28 7 C-25.43428168 5.93321724 -23.10142779 5.14831622 -20.4375 4.4375 C-18.97210232 4.0188612 -17.50724997 3.59830853 -16.04296875 3.17578125 C-15.34091309 2.97678223 -14.63885742 2.7777832 -13.91552734 2.57275391 C-11.63317124 1.89031605 -9.4477378 1.04177063 -7.25 0.125 C-4 -1 -4 -1 0 0 Z " fill="#F3F2F2" transform="translate(617,623)"/>
<path d="M0 0 C3.77252835 3.57855083 6.81933237 7.2750418 9.75 11.5625 C10.14832031 12.12646484 10.54664063 12.69042969 10.95703125 13.27148438 C12.91442583 16.10804771 14.49439423 18.55345403 15 22 C11.93287553 19.22969403 9.70149202 15.88467065 7.375 12.5 C6.96765625 11.91863281 6.5603125 11.33726562 6.140625 10.73828125 C4.3668997 8.1716655 2.99217418 5.97652255 2 3 C1.01 2.67 0.02 2.34 -1 2 C-0.67 1.34 -0.34 0.68 0 0 Z " fill="#F2F2F1" transform="translate(584,384)"/>
<path d="M0 0 C-0.28151087 1.31471568 -0.57553339 2.62675767 -0.875 3.9375 C-1.03742187 4.66839844 -1.19984375 5.39929688 -1.3671875 6.15234375 C-2 8 -2 8 -4 9 C-3.67 6.36 -3.34 3.72 -3 1 C-7.29 1 -11.58 1 -16 1 C-15 -1 -15 -1 -13.4375 -1.625 C-8.52148832 -2.38130949 -4.28232553 -2.85488368 0 0 Z " fill="#EFEFEF" transform="translate(581,465)"/>
<path d="M0 0 C2.0625 0.4375 2.0625 0.4375 4 1 C4 1.99 4 2.98 4 4 C2.68 4 1.36 4 0 4 C-0.99 4.66 -1.98 5.32 -3 6 C-1.125 1.125 -1.125 1.125 0 0 Z " fill="#DDDDDC" transform="translate(643,742)"/>
<path d="M0 0 C3 1 3 1 3 1 Z " fill="#EAEAE7" transform="translate(814,752)"/>
<path d="M0 0 C3 1 3 1 3 1 Z " fill="#ECEBEA" transform="translate(475,223)"/>
<path d="M0 0 C2 1 2 1 2 1 Z " fill="#E9E9E7" transform="translate(822,752)"/>
<path d="M0 0 C2 1 2 1 2 1 Z " fill="#E9E8E6" transform="translate(818,752)"/>
<path d="M0 0 C2 1 2 1 2 1 Z " fill="#EAE9E8" transform="translate(806,752)"/>
<path d="M0 0 C2 1 2 1 2 1 Z " fill="#EAEAEA" transform="translate(491,718)"/>
<path d="M0 0 C2 1 2 1 2 1 Z " fill="#E9E9E9" transform="translate(819,710)"/>
<path d="M0 0 C2 1 2 1 2 1 Z " fill="#EBEBEA" transform="translate(800,710)"/>
<path d="" fill="#E1E1E1" transform="translate(0,0)"/>
<path d="" fill="#EAEAE9" transform="translate(0,0)"/>
<path d="" fill="#ECECEA" transform="translate(0,0)"/>
<path d="" fill="#ECEBEC" transform="translate(0,0)"/>
<path d="" fill="#656565" transform="translate(0,0)"/>
<path d="" fill="#E8E8E7" transform="translate(0,0)"/>
<path d="" fill="#EBECE8" transform="translate(0,0)"/>
<path d="" fill="#E9E9E7" transform="translate(0,0)"/>
<path d="" fill="#EAE9EA" transform="translate(0,0)"/>
<path d="" fill="#E8E8E8" transform="translate(0,0)"/>
<path d="" fill="#E8E9E8" transform="translate(0,0)"/>
<path d="" fill="#E6E7E7" transform="translate(0,0)"/>
<path d="" fill="#E9EAE8" transform="translate(0,0)"/>
<path d="" fill="#E9E9E9" transform="translate(0,0)"/>
<path d="" fill="#EAE9E9" transform="translate(0,0)"/>
<path d="" fill="#EAEBEA" transform="translate(0,0)"/>
<path d="" fill="#EAEAEA" transform="translate(0,0)"/>
<path d="" fill="#E9EBEA" transform="translate(0,0)"/>
<path d="" fill="#EAEAEB" transform="translate(0,0)"/>
<path d="" fill="#ECEAEB" transform="translate(0,0)"/>
<path d="" fill="#ECECEB" transform="translate(0,0)"/>
<path d="" fill="#EDEDEC" transform="translate(0,0)"/>
<path d="" fill="#E8EAE9" transform="translate(0,0)"/>
<path d="" fill="#EAECEB" transform="translate(0,0)"/>
<path d="" fill="#E5E5E4" transform="translate(0,0)"/>
<path d="" fill="#EDEDEF" transform="translate(0,0)"/>
<path d="" fill="#E7E7E7" transform="translate(0,0)"/>
<path d="" fill="#E8E8E8" transform="translate(0,0)"/>
<path d="" fill="#E9E8EA" transform="translate(0,0)"/>
<path d="" fill="#E9EAE9" transform="translate(0,0)"/>
<path d="" fill="#EAEAEA" transform="translate(0,0)"/>
<path d="" fill="#EBEAEB" transform="translate(0,0)"/>
<path d="" fill="#EDEEED" transform="translate(0,0)"/>
<path d="" fill="#EAEAEB" transform="translate(0,0)"/>
<path d="" fill="#E5E4E3" transform="translate(0,0)"/>
<path d="" fill="#EAECEB" transform="translate(0,0)"/>
<path d="" fill="#EBE7E9" transform="translate(0,0)"/>
<path d="" fill="#ECECEB" transform="translate(0,0)"/>
<path d="" fill="#EBEAE9" transform="translate(0,0)"/>
<path d="" fill="#EDEBEB" transform="translate(0,0)"/>
<path d="" fill="#EBEBEA" transform="translate(0,0)"/>
<path d="" fill="#E9ECEA" transform="translate(0,0)"/>
<path d="" fill="#EDEBE9" transform="translate(0,0)"/>
<path d="" fill="#EBEBE9" transform="translate(0,0)"/>
<path d="" fill="#EBEAEB" transform="translate(0,0)"/>
<path d="" fill="#EAEBEB" transform="translate(0,0)"/>
<path d="" fill="#EAEAEC" transform="translate(0,0)"/>
<path d="" fill="#EDEDED" transform="translate(0,0)"/>
<path d="" fill="#E7E6E8" transform="translate(0,0)"/>
<path d="" fill="#E8E7E7" transform="translate(0,0)"/>
<path d="" fill="#E8E9E7" transform="translate(0,0)"/>
<path d="" fill="#EAEAE9" transform="translate(0,0)"/>
<path d="" fill="#E9EAE8" transform="translate(0,0)"/>
<path d="" fill="#ECECED" transform="translate(0,0)"/>
<path d="" fill="#EBEBEA" transform="translate(0,0)"/>
<path d="" fill="#E4E4E4" transform="translate(0,0)"/>
<path d="" fill="#EAEBED" transform="translate(0,0)"/>
<path d="" fill="#EAEBEB" transform="translate(0,0)"/>
<path d="" fill="#EAEBEA" transform="translate(0,0)"/>
<path d="" fill="#EEEDEB" transform="translate(0,0)"/>
<path d="" fill="#ECEBEC" transform="translate(0,0)"/>
<path d="" fill="#EAECEB" transform="translate(0,0)"/>
<path d="" fill="#ECEBED" transform="translate(0,0)"/>
<path d="" fill="#E3E3E1" transform="translate(0,0)"/>
<path d="" fill="#E6E5E4" transform="translate(0,0)"/>
<path d="" fill="#E7E8E8" transform="translate(0,0)"/>
</svg>
