<?xml version="1.0" encoding="UTF-8"?>
<svg version="1.1" xmlns="http://www.w3.org/2000/svg" width="223" height="300">
<path d="M0 0 C10.54151402 7.64402734 14.64741429 18.37435664 16.83939743 30.96901321 C17.9720989 39.76754481 17.56602049 48.80003169 17.56640625 57.65234375 C17.57819494 60.01836457 17.59156279 62.38437799 17.60643005 64.75038147 C17.64243144 70.94409635 17.66276722 77.1377456 17.67797852 83.33154297 C17.70291905 93.26810952 17.7424914 103.20453131 17.79987907 113.1409626 C17.81617456 116.6031194 17.81998145 120.06513813 17.82289124 123.52732849 C17.83266653 125.64834838 17.84292964 127.76936609 17.85375977 129.89038086 C17.85120682 130.84891464 17.84865387 131.80744843 17.84602356 132.79502869 C17.88296131 137.60848652 18.04880892 141.73970657 20.125 146.1875 C24.16886264 148.82071289 28.49871796 149.98466667 33.125 151.1875 C33.125 154.4875 33.125 157.7875 33.125 161.1875 C29.02511502 162.16965907 25.18998399 162.31424016 20.97973633 162.31689453 C20.2799617 162.31864685 19.58018707 162.32039917 18.85920715 162.32220459 C16.55845624 162.32658715 14.25778287 162.32369878 11.95703125 162.3203125 C10.35471075 162.32098634 8.75239034 162.32195704 7.15007019 162.32321167 C3.79868594 162.32468357 0.4473284 162.32254954 -2.90405273 162.31787109 C-7.20502173 162.31216026 -11.50592851 162.31546455 -15.80689526 162.32144356 C-19.11221285 162.32505108 -22.4175156 162.32390994 -25.72283363 162.32131577 C-27.30930908 162.32064774 -28.89578587 162.32147059 -30.48225975 162.32379532 C-32.69418303 162.32632645 -34.90600427 162.32247536 -37.11791992 162.31689453 C-39.00724495 162.31570114 -39.00724495 162.31570114 -40.93473816 162.31448364 C-43.875 162.1875 -43.875 162.1875 -45.875 161.1875 C-45.92899736 159.72957116 -45.96779177 158.27107288 -46 156.8125 C-46.02320313 156.00039062 -46.04640625 155.18828125 -46.0703125 154.3515625 C-45.875 152.1875 -45.875 152.1875 -43.875 150.1875 C-41.62080105 149.52450031 -39.35662904 148.98148095 -37.06640625 148.45703125 C-33.78019251 146.55325323 -32.88546814 143.69575345 -31.875 140.1875 C-31.45641245 136.7637649 -31.45443266 133.37488843 -31.47094727 129.92871094 C-31.46408401 128.92123306 -31.45722076 127.91375519 -31.45014954 126.87574768 C-31.43190546 123.55764517 -31.43571685 120.24001674 -31.44140625 116.921875 C-31.4368423 114.60410408 -31.43153609 112.28633451 -31.42552185 109.96856689 C-31.41659463 105.11326599 -31.41900837 100.2581296 -31.42895508 95.40283203 C-31.4404255 89.20139267 -31.42026024 83.00052436 -31.39103794 76.79916 C-31.37262762 72.01196726 -31.37297838 67.22491002 -31.37867546 62.43769073 C-31.37882818 60.15250092 -31.37282473 57.86730164 -31.36038399 55.58214569 C-31.3453903 52.37569672 -31.35621418 49.17028527 -31.37329102 45.96386719 C-31.36362305 45.03258499 -31.35395508 44.1013028 -31.34399414 43.14179993 C-31.43050482 35.32576136 -32.90416049 27.30325851 -38.4375 21.5 C-43.94808298 19.39595923 -49.41304637 18.94841948 -55.046875 20.96484375 C-61.25818085 24.45559764 -67.68711513 30.81173025 -70.875 37.1875 C-70.97071109 38.55501702 -71.00564932 39.92705373 -71.00871277 41.2979126 C-71.01297775 42.15864883 -71.01724274 43.01938507 -71.02163696 43.90620422 C-71.02118378 44.85271347 -71.02073059 45.79922272 -71.02026367 46.77441406 C-71.02362228 47.76968613 -71.0269809 48.76495819 -71.03044128 49.79039001 C-71.03997293 53.09464757 -71.04189569 56.39885454 -71.04296875 59.703125 C-71.04618044 61.99517844 -71.04954444 64.28723167 -71.05305481 66.57928467 C-71.05905207 71.39124018 -71.06089416 76.20317773 -71.06030273 81.01513672 C-71.06020123 87.18005172 -71.07383914 93.34485126 -71.09107494 99.50973892 C-71.10219784 104.24695362 -71.10422183 108.98414046 -71.10369301 113.72136688 C-71.10487324 115.99393867 -71.1092974 118.26651117 -71.11702538 120.53907013 C-71.12682836 123.7204646 -71.12394557 126.90160928 -71.11791992 130.08300781 C-71.12353943 131.02142014 -71.12915894 131.95983246 -71.13494873 132.92668152 C-71.1119823 137.70130087 -70.93475502 141.77537497 -68.875 146.1875 C-66.07157503 148.19165343 -66.07157503 148.19165343 -62.75 149.5625 C-61.65429688 150.06523437 -60.55859375 150.56796875 -59.4296875 151.0859375 C-58.58664063 151.44945312 -57.74359375 151.81296875 -56.875 152.1875 C-56.875 155.1575 -56.875 158.1275 -56.875 161.1875 C-67.28835507 161.34107941 -77.7017714 161.48926117 -88.11530209 161.6304636 C-92.95020199 161.69619404 -97.78506031 161.76381613 -102.61987305 161.83569336 C-107.2817162 161.90493065 -111.94360304 161.96928783 -116.60556221 162.03019524 C-118.38826527 162.05435645 -120.17094497 162.08030581 -121.95359612 162.10803413 C-124.44160176 162.1464348 -126.92961293 162.17859849 -129.41772461 162.20922852 C-130.53442032 162.22864754 -130.53442032 162.22864754 -131.67367554 162.24845886 C-133.40747501 162.26655365 -135.14169472 162.23267529 -136.875 162.1875 C-137.875 161.1875 -137.875 161.1875 -137.97265625 159.12109375 C-137.96105469 158.29738281 -137.94945312 157.47367188 -137.9375 156.625 C-137.92847656 155.79871094 -137.91945312 154.97242188 -137.91015625 154.12109375 C-137.89855469 153.48300781 -137.88695312 152.84492188 -137.875 152.1875 C-136.84375 151.754375 -135.8125 151.32125 -134.75 150.875 C-134.11320312 150.59527344 -133.47640625 150.31554687 -132.8203125 150.02734375 C-131.10657419 149.28747681 -129.36720954 148.60758059 -127.625 147.9375 C-124.04024329 145.65629118 -122.94316713 143.16950835 -121.875 139.1875 C-121.45612398 135.24867155 -121.47510265 131.33865153 -121.50268555 127.38061523 C-121.49903488 126.20904877 -121.49538422 125.0374823 -121.49162292 123.83041382 C-121.48353579 119.96882505 -121.49711209 116.10765827 -121.51171875 112.24609375 C-121.51369708 109.55762046 -121.51177134 106.86915256 -121.51020813 104.18067932 C-121.50932688 98.55114736 -121.52037095 92.9217362 -121.53881836 87.29223633 C-121.55999371 80.79324594 -121.56349266 74.29443229 -121.5572564 67.79541439 C-121.55155292 61.52965818 -121.55721932 55.2639639 -121.56842995 48.99821663 C-121.5730619 46.33765892 -121.57343173 43.67720348 -121.5718441 41.01663017 C-121.5714732 37.29931397 -121.58410098 33.58226612 -121.6003418 29.86499023 C-121.59786438 28.76611984 -121.59538696 27.66724945 -121.59283447 26.53507996 C-121.63665582 19.16429364 -121.63665582 19.16429364 -123.875 12.1875 C-125.83388769 10.90579056 -125.83388769 10.90579056 -128.1875 10.4375 C-128.98671875 10.21964844 -129.7859375 10.00179687 -130.609375 9.77734375 C-131.35703125 9.58269531 -132.1046875 9.38804688 -132.875 9.1875 C-134.54863977 8.53853764 -136.21961042 7.88169563 -137.875 7.1875 C-137.90189216 5.70843108 -137.92134621 4.22922517 -137.9375 2.75 C-137.94910156 1.92628906 -137.96070313 1.10257812 -137.97265625 0.25390625 C-137.875 -1.8125 -137.875 -1.8125 -136.875 -2.8125 C-134.94738183 -2.91170863 -133.01610646 -2.94049365 -131.0859375 -2.94189453 C-129.2289624 -2.94662277 -129.2289624 -2.94662277 -127.33447266 -2.95144653 C-125.97298141 -2.94965675 -124.61149049 -2.9476058 -123.25 -2.9453125 C-121.86376936 -2.94598559 -120.47753883 -2.94695566 -119.09130859 -2.94821167 C-116.18260578 -2.9496884 -113.27393363 -2.9475349 -110.36523438 -2.94287109 C-106.62903402 -2.93717381 -102.89290548 -2.94045294 -99.15670776 -2.94644356 C-96.29320734 -2.95004985 -93.42972407 -2.94891027 -90.56622314 -2.94631577 C-89.18825268 -2.94564668 -87.81028068 -2.94647426 -86.43231201 -2.94879532 C-84.50956246 -2.95132292 -82.58680748 -2.94679024 -80.6640625 -2.94189453 C-79.01978271 -2.94070114 -79.01978271 -2.94070114 -77.34228516 -2.93948364 C-74.875 -2.8125 -74.875 -2.8125 -73.875 -1.8125 C-73.71879445 -0.39922053 -73.62443827 1.0210459 -73.55859375 2.44140625 C-73.51669922 3.29541016 -73.47480469 4.14941406 -73.43164062 5.02929688 C-73.39232422 5.92712891 -73.35300781 6.82496094 -73.3125 7.75 C-73.26931641 8.65169922 -73.22613281 9.55339844 -73.18164062 10.48242188 C-73.07521858 12.71728485 -72.97320012 14.95226308 -72.875 17.1875 C-72.19695312 16.40246094 -71.51890625 15.61742188 -70.8203125 14.80859375 C-52.67336375 -5.8331085 -25.17759064 -15.49709787 0 0 Z " fill="#F14135" transform="translate(179.875,85.8125)"/>
<path d="M0 0 C7.668548 4.6011288 12.86016382 10.2909528 15.4375 18.9375 C17.62199154 28.24286657 15.93742136 37.1876292 10.9609375 45.36328125 C6.12857064 51.4438187 -0.30858892 54.51952964 -7.5625 56.9375 C-17.23148135 58.03656407 -24.53766599 56.50902761 -32.5625 50.9375 C-39.30974031 45.12616722 -42.84867387 39.09086192 -43.87109375 30.27734375 C-44.27854299 21.49866477 -41.87585023 14.42323575 -36.3125 7.625 C-27.08287187 -2.20137133 -12.53399225 -5.89948709 0 0 Z " fill="#575759" transform="translate(91.5625,17.0625)"/>
<path d="M0 0 C1.25271667 0.00092179 2.50543333 0.00184359 3.79611111 0.00279331 C4.49116943 0.00193889 5.18622776 0.00108446 5.90234846 0.00020415 C8.24858902 -0.00145266 10.59475925 0.00407396 12.94099331 0.00952244 C14.61599634 0.00980429 16.2909995 0.00964661 17.96600246 0.00907993 C22.52779196 0.00879189 27.0895554 0.01468969 31.65133882 0.02165389 C36.41328917 0.02788632 41.17524006 0.02849114 45.93719387 0.0296793 C54.96115483 0.03279294 63.98510373 0.04100677 73.00905937 0.05102879 C83.27974403 0.0621889 93.55042926 0.06770012 103.82111847 0.07272422 C124.95475211 0.08318936 146.08837488 0.10078944 167.22199917 0.12304783 C167.60333216 2.11445343 167.93525499 4.1158386 168.22199917 6.12304783 C167.22199917 7.12304783 167.22199917 7.12304783 164.42838097 7.24609566 C162.53824445 7.24471297 162.53824445 7.24471297 160.60992336 7.24330235 C159.91078148 7.24415677 159.21163961 7.24501119 158.49131161 7.24589151 C156.13125166 7.24754834 153.77126163 7.24202167 151.41120815 7.23657322 C149.72635303 7.23629137 148.04149778 7.23644905 146.35664272 7.23701572 C141.76799464 7.23730377 137.17937247 7.23140594 132.59073043 7.22444177 C127.80075285 7.21820936 123.01077473 7.21760452 118.22079372 7.21641636 C109.14370885 7.21330271 100.06663596 7.20508887 90.98955637 7.19506687 C80.65841336 7.18390678 70.32726978 7.17839555 59.99612224 7.17337143 C38.73807452 7.16290628 17.4800376 7.14530619 -3.77800083 7.12304783 C-3.82054439 5.12350037 -3.81880866 3.12263147 -3.77800083 1.12304783 C-2.77800083 0.12304783 -2.77800083 0.12304783 0 0 Z " fill="#272323" transform="translate(45.778000831604004,249.87695217132568)"/>
<path d="M0 0 C56.43 0 112.86 0 171 0 C170.67 1.65 170.34 3.3 170 5 C169.67 4.34 169.34 3.68 169 3 C113.23 3 57.46 3 0 3 C0 2.01 0 1.02 0 0 Z " fill="#010101" transform="translate(43,252)"/>
<path d="M0 0 C4.07533652 3.96809082 5.53687218 7.65972643 5.73576355 13.28598022 C5.74442381 15.28228015 5.73656723 17.27869399 5.71557617 19.27490234 C5.71623329 20.91481644 5.71623329 20.91481644 5.71690369 22.58786011 C5.71481828 26.1915693 5.69149815 29.79480985 5.66796875 33.3984375 C5.66237193 35.90092718 5.65810224 38.40342016 5.65510559 40.90591431 C5.64483233 46.81317333 5.62120236 52.72028269 5.59105712 58.62746489 C5.55417476 66.01593635 5.53810932 73.40442875 5.52148438 80.79296875 C5.4893317 93.96623079 5.43872145 107.13935478 5.375 120.3125 C5.045 120.3125 4.715 120.3125 4.375 120.3125 C4.36953156 118.37596809 4.36953156 118.37596809 4.36395264 116.40031433 C4.32693119 104.20390687 4.26908016 92.00775023 4.19109726 79.81153393 C4.15167251 73.54207027 4.11945931 67.27274603 4.10400391 61.00317383 C4.08880467 54.94701784 4.05430039 48.89124525 4.00669098 42.83526039 C3.99191098 40.5305751 3.98396094 38.22583506 3.98311615 35.92110252 C3.98073463 32.68030815 3.95355846 29.4405632 3.92089844 26.19995117 C3.9259288 25.25767166 3.93095917 24.31539215 3.93614197 23.34455872 C3.81476543 15.50503122 2.36627398 7.44968979 -3.1875 1.625 C-8.69808298 -0.47904077 -14.16304637 -0.92658052 -19.796875 1.08984375 C-26.00818085 4.58059764 -32.43711513 10.93673025 -35.625 17.3125 C-35.72838543 18.71859612 -35.77144166 20.12937249 -35.78321838 21.53921509 C-35.7930072 22.42545059 -35.80279602 23.3116861 -35.81288147 24.22477722 C-35.81863693 25.19941422 -35.8243924 26.17405121 -35.83032227 27.17822266 C-35.84022186 28.20263962 -35.85012146 29.22705658 -35.86032104 30.28251648 C-35.89199755 33.68050803 -35.91671778 37.07851357 -35.94140625 40.4765625 C-35.96197047 42.82783377 -35.98296679 45.17910129 -36.00437927 47.53036499 C-36.05965493 53.72815934 -36.10903996 59.92598735 -36.15722656 66.12384033 C-36.20740152 72.44456998 -36.26310846 78.76525055 -36.31835938 85.0859375 C-36.42600813 97.49474978 -36.52743815 109.90360461 -36.625 122.3125 C-36.955 122.3125 -37.285 122.3125 -37.625 122.3125 C-37.90642922 108.4561785 -38.11666353 94.60030551 -38.24674606 80.74170399 C-38.30920206 74.30538693 -38.3938184 67.87099828 -38.53027344 61.43579102 C-38.66129331 55.21752359 -38.73254028 49.00110275 -38.76352692 42.7815609 C-38.78558867 40.41679516 -38.82867319 38.05212319 -38.89376068 35.68815041 C-39.43416542 15.23499367 -39.43416542 15.23499367 -33.46635818 8.11856365 C-23.92289729 -1.68736093 -13.2144784 -6.15156753 0 0 Z " fill="#AF5755" transform="translate(144.625,105.6875)"/>
<path d="M0 0 C2.45475393 2.18124374 3.57117613 3.94124599 4.5625 7.0625 C4.79066406 7.75472656 5.01882812 8.44695312 5.25390625 9.16015625 C7.35915514 17.17332872 8.28880774 24.67313537 8.22705078 32.95751953 C8.22734283 34.00261185 8.22763489 35.04770416 8.22793579 36.12446594 C8.22655374 39.54400227 8.21104579 42.96331472 8.1953125 46.3828125 C8.19157837 48.76748536 8.18873329 51.15215977 8.18673706 53.53683472 C8.17913211 59.7871938 8.15951073 66.03745868 8.1373291 72.28778076 C8.11680287 78.67621588 8.10772089 85.06466635 8.09765625 91.453125 C8.07626175 103.9687912 8.04216393 116.48438774 8 129 C7.34 129 6.68 129 6 129 C5.99857498 127.7732103 5.99714996 126.54642059 5.99568176 125.28245544 C5.97888226 113.61953999 5.93571868 101.95696767 5.86790943 90.29423428 C5.83387852 84.3008434 5.80856706 78.30770097 5.80444336 72.31420898 C5.80010858 66.51080859 5.77122464 60.70796636 5.72656822 54.90474129 C5.71375655 52.71045264 5.70922617 50.51609662 5.71384621 48.32177544 C5.73742668 33.69678066 4.14143759 20.34540961 0.4477644 6.17570591 C0 4 0 4 0 0 Z " fill="#B04E48" transform="translate(189,97)"/>
<path d="M0 0 C0.66 0 1.32 0 2 0 C2.89292382 6.86566402 3.14294558 13.56413151 3.12939453 20.4831543 C3.13114685 21.59649139 3.13289917 22.70982849 3.13470459 23.85690308 C3.13908227 27.51269113 3.13620013 31.16843026 3.1328125 34.82421875 C3.13348657 37.37531036 3.13445746 39.9264019 3.13571167 42.47749329 C3.13718299 47.81255771 3.135148 53.1476048 3.13037109 58.48266602 C3.12492168 64.63970127 3.12669938 70.79670345 3.1321975 76.95373791 C3.13729004 82.89591222 3.13674148 88.83807629 3.13381577 94.78025246 C3.13314913 97.30122698 3.13396574 99.82220235 3.13629532 102.34317589 C3.13883564 105.86381646 3.13496207 109.38439346 3.12939453 112.9050293 C3.13141876 113.94465317 3.13344299 114.98427704 3.13552856 116.05540466 C3.12158308 120.81728872 2.99842371 125.31842166 2 130 C0.68 130.33 -0.64 130.66 -2 131 C-2 131.66 -2 132.32 -2 133 C-2.66 133 -3.32 133 -4 133 C-2 128 -2 128 -0.94471931 125.65364552 C0.06377521 122.82086022 0.24663046 120.72561103 0.24050903 117.72917175 C0.24325836 116.68735748 0.24600769 115.64554321 0.24884033 114.57215881 C0.2380545 112.87391212 0.2380545 112.87391212 0.22705078 111.14135742 C0.22734283 109.94093811 0.22763489 108.7405188 0.22793579 107.50372314 C0.22678293 104.22099754 0.2167669 100.93844344 0.20278788 97.65575194 C0.19026757 94.22178759 0.18910899 90.78781971 0.18673706 87.35383606 C0.18052611 80.8551402 0.16412052 74.35651179 0.14403808 67.8578456 C0.12166709 60.45763812 0.11068264 53.05742738 0.10064721 45.6571945 C0.07975393 30.43809062 0.04458546 15.21905402 0 0 Z " fill="#C7584D" transform="translate(58,102)"/>
<path d="M0 0 C0.66 0.33 1.32 0.66 2 1 C1.31164062 1.67095703 1.31164062 1.67095703 0.609375 2.35546875 C-0.00421875 2.96003906 -0.6178125 3.56460938 -1.25 4.1875 C-2.15492187 5.07501953 -2.15492187 5.07501953 -3.078125 5.98046875 C-4.02945313 6.98013672 -4.02945313 6.98013672 -5 8 C-5.68961823 8.65556381 -6.37923645 9.31112762 -7.0897522 9.98655701 C-9.86412656 14.3631719 -9.54491554 18.15220391 -9.48583984 23.23461914 C-9.48963654 24.26280258 -9.49343323 25.29098602 -9.49734497 26.35032654 C-9.50474845 29.74558104 -9.48337136 33.13997793 -9.4609375 36.53515625 C-9.45855303 38.89497273 -9.45764776 41.25479113 -9.4581604 43.61460876 C-9.45503281 48.55837907 -9.43846912 53.5018593 -9.41162109 58.44555664 C-9.37762298 64.78661175 -9.36999309 71.12734835 -9.37151146 77.46848392 C-9.37096798 82.34031725 -9.3600046 87.21208078 -9.34550858 92.08389091 C-9.33913903 94.42230132 -9.33520131 96.76071965 -9.33372116 99.09913826 C-9.32939097 102.36448811 -9.31189614 105.62949837 -9.29052734 108.89477539 C-9.29143372 109.86371735 -9.29234009 110.8326593 -9.29327393 111.83096313 C-9.28474396 112.72113632 -9.27621399 113.61130951 -9.26742554 114.52845764 C-9.26407385 115.29995683 -9.26072216 116.07145601 -9.25726891 116.86633396 C-8.76405238 120.95683739 -6.49276164 123.82739427 -4 127 C-5.32 127 -6.64 127 -8 127 C-12.80908257 120.94411824 -12.14886305 113.37644472 -12.14526367 106.03491211 C-12.14862228 105.04720322 -12.1519809 104.05949432 -12.15544128 103.04185486 C-12.16491665 99.78700493 -12.16689241 96.5322066 -12.16796875 93.27734375 C-12.17118273 91.01103189 -12.17454691 88.74472024 -12.17805481 86.47840881 C-12.18403683 81.73324095 -12.18589556 76.98809129 -12.18530273 72.24291992 C-12.18520094 66.16097517 -12.1988749 60.07914672 -12.21607494 53.99722958 C-12.22718672 49.31925418 -12.22922223 44.64130702 -12.22869301 39.96331978 C-12.22987353 37.72062337 -12.23429931 35.47792625 -12.24202538 33.23524284 C-12.25181236 30.10197626 -12.24895267 26.96896395 -12.24291992 23.83569336 C-12.24853943 22.90932068 -12.25415894 21.982948 -12.25994873 21.02850342 C-12.23813715 16.57493498 -12.11275628 13.04452017 -10 9 C-9.01 9 -8.02 9 -7 9 C-7 7.68 -7 6.36 -7 5 C-6.401875 4.731875 -5.80375 4.46375 -5.1875 4.1875 C-3.02775192 3.01506533 -1.64209744 1.80630718 0 0 Z " fill="#D24534" transform="translate(117,107)"/>
<path d="M0 0 C0.99 1.485 0.99 1.485 2 3 C5.6272208 7.8362944 10.37894188 8.52077418 16 10 C16 13.3 16 16.6 16 20 C11.90011502 20.98215907 8.06498399 21.12674016 3.85473633 21.12939453 C3.1549617 21.13114685 2.45518707 21.13289917 1.73420715 21.13470459 C-0.56654376 21.13908715 -2.86721713 21.13619878 -5.16796875 21.1328125 C-6.77028925 21.13348634 -8.37260966 21.13445704 -9.97492981 21.13571167 C-13.32631406 21.13718357 -16.6776716 21.13504954 -20.02905273 21.13037109 C-24.33002173 21.12466026 -28.63092851 21.12796455 -32.93189526 21.13394356 C-36.23721285 21.13755108 -39.5425156 21.13640994 -42.84783363 21.13381577 C-44.43430908 21.13314774 -46.02078587 21.13397059 -47.60725975 21.13629532 C-49.81918303 21.13882645 -52.03100427 21.13497536 -54.24291992 21.12939453 C-56.13224495 21.12820114 -56.13224495 21.12820114 -58.05973816 21.12698364 C-61 21 -61 21 -63 20 C-63 17.03 -63 14.06 -63 11 C-62.34 10.67 -61.68 10.34 -61 10 C-60.34 12.31 -59.68 14.62 -59 17 C-35.24 17.33 -11.48 17.66 13 18 C12.01 15.03 12.01 15.03 11 12 C8.4041482 10.6344181 8.4041482 10.6344181 5.375 10.125 C4.37210937 9.90070313 3.36921875 9.67640625 2.3359375 9.4453125 C1.56507813 9.29835937 0.79421875 9.15140625 0 9 C-0.87890625 2.84765625 -0.87890625 2.84765625 -1 1 C-0.67 0.67 -0.34 0.34 0 0 Z " fill="#AF4640" transform="translate(197,227)"/>
<path d="M0 0 C3.81336192 1.47334438 4.79992631 3.86442428 6.734375 7.34765625 C7.06953125 7.91355469 7.4046875 8.47945313 7.75 9.0625 C8.08 9.0625 8.41 9.0625 8.75 9.0625 C9.08 6.0925 9.41 3.1225 9.75 0.0625 C11.07 0.3925 12.39 0.7225 13.75 1.0625 C13.83687496 4.18732562 13.89034568 7.31184246 13.9375 10.4375 C13.96263672 11.32695312 13.98777344 12.21640625 14.01367188 13.1328125 C14.02333984 13.98359375 14.03300781 14.834375 14.04296875 15.7109375 C14.0586792 16.49645996 14.07438965 17.28198242 14.09057617 18.09130859 C13.97818604 18.74180176 13.8657959 19.39229492 13.75 20.0625 C12.76 20.7225 11.77 21.3825 10.75 22.0625 C10.316875 21.60875 9.88375 21.155 9.4375 20.6875 C7.64201658 18.86225666 7.64201658 18.86225666 4.75 17.0625 C4.0625 14.4375 4.0625 14.4375 3.75 12.0625 C3.42 12.3925 3.09 12.7225 2.75 13.0625 C2.75 14.196875 2.75 15.33125 2.75 16.5 C2.75 20.0625 2.75 20.0625 1.75 22.0625 C0.43 21.7325 -0.89 21.4025 -2.25 21.0625 C-3.12346005 14.40236708 -3.65807542 7.78374218 -3.25 1.0625 C-2.25 0.0625 -2.25 0.0625 0 0 Z M8.75 10.0625 C9.75 13.0625 9.75 13.0625 9.75 13.0625 Z " fill="#161616" transform="translate(44.25,260.9375)"/>
<path d="M0 0 C0.33 0.66 0.66 1.32 1 2 C-2.465 3.485 -2.465 3.485 -6 5 C-6 6.65 -6 8.3 -6 10 C30.63 10.495 30.63 10.495 68 11 C66.5201761 4.30628446 66.5201761 4.30628446 62 1 C65.73487777 1.4979837 67.81237635 1.87491756 71 4 C71.29296875 6.1640625 71.29296875 6.1640625 71.1875 8.625 C71.14689453 9.85089844 71.14689453 9.85089844 71.10546875 11.1015625 C71.07066406 11.72804687 71.03585938 12.35453125 71 13 C60.58664493 13.15357941 50.1732286 13.30176117 39.75969791 13.4429636 C34.92479801 13.50869404 30.08993969 13.57631613 25.25512695 13.64819336 C20.5932838 13.71743065 15.93139696 13.78178783 11.26943779 13.84269524 C9.48673473 13.86685645 7.70405503 13.89280581 5.92140388 13.92053413 C3.43339824 13.9589348 0.94538707 13.99109849 -1.54272461 14.02172852 C-2.65942032 14.04114754 -2.65942032 14.04114754 -3.79867554 14.06095886 C-5.53247501 14.07905365 -7.26669472 14.04517529 -9 14 C-10 13 -10 13 -10.09765625 10.93359375 C-10.08605469 10.10988281 -10.07445312 9.28617188 -10.0625 8.4375 C-10.05347656 7.61121094 -10.04445312 6.78492188 -10.03515625 5.93359375 C-10.02355469 5.29550781 -10.01195312 4.65742188 -10 4 C-3.375 1.125 -3.375 1.125 0 0 Z " fill="#AD443B" transform="translate(52,234)"/>
<path d="M0 0 C1.8569751 -0.00472824 1.8569751 -0.00472824 3.75146484 -0.009552 C5.11295609 -0.00776222 6.47444701 -0.00571127 7.8359375 -0.00341797 C9.22216814 -0.00409106 10.60839867 -0.00506113 11.99462891 -0.00631714 C14.90333172 -0.00779387 17.81200387 -0.00564037 20.72070312 -0.00097656 C24.45690348 0.00472073 28.19303202 0.00144159 31.92922974 -0.00454903 C34.79273016 -0.00815532 37.65621343 -0.00701574 40.51971436 -0.00442123 C41.89768482 -0.00375215 43.27565682 -0.00457973 44.65362549 -0.00690079 C46.57637504 -0.00942839 48.49913002 -0.0048957 50.421875 0 C52.06615479 0.00119339 52.06615479 0.00119339 53.74365234 0.00241089 C56.2109375 0.12939453 56.2109375 0.12939453 57.2109375 1.12939453 C57.29763182 2.61811313 57.31797244 4.11083953 57.30859375 5.60205078 C57.30375977 6.95073242 57.30375977 6.95073242 57.29882812 8.32666016 C57.28625977 9.74495117 57.28625977 9.74495117 57.2734375 11.19189453 C57.26892578 12.14128906 57.26441406 13.09068359 57.25976562 14.06884766 C57.2479386 16.42242518 57.23145775 18.7758793 57.2109375 21.12939453 C56.8809375 21.12939453 56.5509375 21.12939453 56.2109375 21.12939453 C56.2109375 14.85939453 56.2109375 8.58939453 56.2109375 2.12939453 C36.7409375 2.12939453 17.2709375 2.12939453 -2.7890625 2.12939453 C-3.1190625 4.10939453 -3.4490625 6.08939453 -3.7890625 8.12939453 C-1.4790625 8.12939453 0.8309375 8.12939453 3.2109375 8.12939453 C3.5409375 9.11939453 3.8709375 10.10939453 4.2109375 11.12939453 C5.17 11.28408203 5.17 11.28408203 6.1484375 11.44189453 C7.169375 11.78220703 7.169375 11.78220703 8.2109375 12.12939453 C9.4609375 15.19189453 9.4609375 15.19189453 10.2109375 18.12939453 C9.2209375 17.79939453 8.2309375 17.46939453 7.2109375 17.12939453 C7.2109375 16.46939453 7.2109375 15.80939453 7.2109375 15.12939453 C6.61925781 14.93603516 6.02757812 14.74267578 5.41796875 14.54345703 C1.296273 13.18524734 -2.7841149 11.80888868 -6.7890625 10.12939453 C-6.81595466 8.65032561 -6.83540871 7.1711197 -6.8515625 5.69189453 C-6.86316406 4.86818359 -6.87476563 4.04447266 -6.88671875 3.19580078 C-6.68350294 -1.10424582 -3.61751422 0.00262553 0 0 Z " fill="#C0584F" transform="translate(48.7890625,82.87060546875)"/>
<path d="M0 0 C-0.33 0.99 -0.66 1.98 -1 3 C-3.95784231 4.22393475 -5.99727245 3.96516243 -9 3 C-9 3.66 -9 4.32 -9 5 C-9.66 5 -10.32 5 -11 5 C-11.12469099 10.57830016 -11.12469099 10.57830016 -10 16 C-9.01 15.67 -8.02 15.34 -7 15 C-6.01 15.33 -5.02 15.66 -4 16 C-4.33 15.01 -4.66 14.02 -5 13 C-5.66 13 -6.32 13 -7 13 C-7.5625 11.0625 -7.5625 11.0625 -8 9 C-7 8 -7 8 -4 7.875 C-1 8 -1 8 0 9 C0.1245486 10.64230364 0.17568524 12.29052276 0.1875 13.9375 C0.20167969 14.83339844 0.21585938 15.72929687 0.23046875 16.65234375 C0 19 0 19 -2 21 C-5.00922309 21.34532068 -7.09325299 21.56241657 -10 21 C-13.17443754 18.43343348 -15.69156276 16.20312314 -16.2734375 12.046875 C-16.4598061 7.83207748 -16.43704829 4.89590152 -13.75 1.5 C-8.74456164 -3.05039851 -6.31718374 -2.06523315 0 0 Z " fill="#161617" transform="translate(106,262)"/>
<path d="M0 0 C1.32 0.33 2.64 0.66 4 1 C4 3.31 4 5.62 4 8 C6.31 8 8.62 8 11 8 C11 5.36 11 2.72 11 0 C12.32 0.33 13.64 0.66 15 1 C15 7.93 15 14.86 15 22 C13.68 22 12.36 22 11 22 C10.67 19.03 10.34 16.06 10 13 C8.02 13 6.04 13 4 13 C4 15.97 4 18.94 4 22 C2.68 21.67 1.36 21.34 0 21 C0 14.07 0 7.14 0 0 Z " fill="#0D0E0E" transform="translate(112,261)"/>
<path d="M0 0 C0.89589844 -0.01417969 1.79179687 -0.02835937 2.71484375 -0.04296875 C5.0625 0.1875 5.0625 0.1875 7.0625 2.1875 C4.70296906 4.54703094 3.28354383 4.67891413 0.0625 5.1875 C-0.2675 6.1775 -0.5975 7.1675 -0.9375 8.1875 C-0.15375 7.98125 0.63 7.775 1.4375 7.5625 C2.736875 7.376875 2.736875 7.376875 4.0625 7.1875 C4.7225 7.8475 5.3825 8.5075 6.0625 9.1875 C5.7325 10.1775 5.4025 11.1675 5.0625 12.1875 C3.39583333 12.85416667 1.72916667 13.52083333 0.0625 14.1875 C-0.2675 15.1775 -0.5975 16.1675 -0.9375 17.1875 C1.0425 17.1875 3.0225 17.1875 5.0625 17.1875 C5.625 19.125 5.625 19.125 6.0625 21.1875 C4.47355928 22.77644072 2.81448576 22.35748411 0.625 22.375 C-0.57962891 22.39626953 -0.57962891 22.39626953 -1.80859375 22.41796875 C-3.9375 22.1875 -3.9375 22.1875 -5.9375 20.1875 C-7.04368875 13.84855754 -7.33595516 7.4805482 -5.9375 1.1875 C-4.27188601 -0.47811399 -2.27787295 0.01634055 0 0 Z " fill="#191919" transform="translate(206.9375,260.8125)"/>
<path d="M0 0 C1.8984375 0.25 1.8984375 0.25 4 1 C4.9765625 2.8125 4.9765625 2.8125 5.625 5 C6.24419219 7.1432966 6.24419219 7.1432966 7 9 C7.66 9.33 8.32 9.66 9 10 C9 8.35 9 6.7 9 5 C9.66 5 10.32 5 11 5 C11.33 3.35 11.66 1.7 12 0 C13.32 0 14.64 0 16 0 C14.47536437 7.49612516 12.31993846 14.71359134 10 22 C8.68 22 7.36 22 6 22 C3.10711152 14.73969251 1.13700865 7.73465096 0 0 Z M7 11 C8 13 8 13 8 13 Z " fill="#161616" transform="translate(181,261)"/>
<path d="M0 0 C0 1.32 0 2.64 0 4 C-1.98 4.33 -3.96 4.66 -6 5 C-5.401875 5.598125 -4.80375 6.19625 -4.1875 6.8125 C-3.465625 7.534375 -2.74375 8.25625 -2 9 C-1.443125 9.45375 -0.88625 9.9075 -0.3125 10.375 C1.5880116 12.72801437 1.67232518 15.05092663 2 18 C1.34 18 0.68 18 0 18 C-0.33 18.99 -0.66 19.98 -1 21 C-7.625 22.125 -7.625 22.125 -11 21 C-11 19.68 -11 18.36 -11 17 C-9.865625 16.87625 -8.73125 16.7525 -7.5625 16.625 C-6.386875 16.41875 -5.21125 16.2125 -4 16 C-3.67 15.34 -3.34 14.68 -3 14 C-3.763125 13.7525 -4.52625 13.505 -5.3125 13.25 C-8.37480696 11.82567118 -9.52390425 11.03419681 -11 8 C-10.9375 4.375 -10.9375 4.375 -10 1 C-6.84174782 -1.80733527 -3.89669554 -0.88561262 0 0 Z " fill="#121212" transform="translate(74,261)"/>
<path d="M0 0 C0 2.33333333 0 4.66666667 0 7 C-0.66 7 -1.32 7 -2 7 C-1.7215625 8.1446875 -1.7215625 8.1446875 -1.4375 9.3125 C-1 12 -1 12 -2 15 C-2.66 15 -3.32 15 -4 15 C-4 15.99 -4 16.98 -4 18 C-3.01 18.33 -2.02 18.66 -1 19 C-1 23 -1 27 -1 31 C-1.66 31 -2.32 31 -3 31 C-1.68 33.97 -0.36 36.94 1 40 C0.34 40 -0.32 40 -1 40 C-6.35818456 34.64181544 -8.13385892 27.96506021 -8.4375 20.5625 C-8.20549171 12.68526625 -5.39341165 5.77865534 0 0 Z " fill="#272626" transform="translate(56,24)"/>
<path d="M0 0 C2.54245205 1.78492444 4.89305533 3.58734397 6.9375 5.9375 C6.9375 6.5975 6.9375 7.2575 6.9375 7.9375 C6.2775 7.9375 5.6175 7.9375 4.9375 7.9375 C4.4425 6.9475 4.4425 6.9475 3.9375 5.9375 C2.2875 5.9375 0.6375 5.9375 -1.0625 5.9375 C-1.5575 3.9575 -1.5575 3.9575 -2.0625 1.9375 C-4.5375 1.4425 -4.5375 1.4425 -7.0625 0.9375 C-7.0625 0.2775 -7.0625 -0.3825 -7.0625 -1.0625 C-9.0425 -0.0725 -11.0225 0.9175 -13.0625 1.9375 C-13.10375 1.31875 -13.145 0.7 -13.1875 0.0625 C-13.88674779 -2.3272732 -13.88674779 -2.3272732 -16.55859375 -3.18359375 C-20.80467106 -4.24866331 -24.64522437 -4.31866451 -29 -4.25 C-29.77279297 -4.24935547 -30.54558594 -4.24871094 -31.34179688 -4.24804688 C-36.00916892 -4.21253855 -40.45863068 -3.82878983 -45.0625 -3.0625 C-45.0625 -3.7225 -45.0625 -4.3825 -45.0625 -5.0625 C-30.34210052 -10.0831001 -13.04372757 -8.34216069 0 0 Z " fill="#E1493D" transform="translate(180.0625,86.0625)"/>
<path d="M0 0 C4.62 0 9.24 0 14 0 C14 1.32 14 2.64 14 4 C12.68 4 11.36 4 10 4 C10 9.61 10 15.22 10 21 C9.34 21.33 8.68 21.66 8 22 C7.01 21.34 6.02 20.68 5 20 C4.77892213 17.2114711 4.71892465 14.65346819 4.8125 11.875 C4.82603516 11.12089844 4.83957031 10.36679687 4.85351562 9.58984375 C4.88890015 7.72625873 4.94270833 5.86304022 5 4 C3.35 4 1.7 4 0 4 C0 2.68 0 1.36 0 0 Z " fill="#1C1C1C" transform="translate(131,261)"/>
<path d="M0 0 C0.99 0 1.98 0 3 0 C2.46914552 3.82215227 1.58424807 6.11756946 -1 9 C-1.99 9.66 -2.98 10.32 -4 11 C-4.99 12.98 -5.98 14.96 -7 17 C8.18 17 23.36 17 39 17 C39 17.33 39 17.66 39 18 C32.05829978 18.05058729 25.11664685 18.08568579 18.17480469 18.10986328 C15.81183089 18.11993924 13.44886961 18.13360029 11.0859375 18.15087891 C7.69528112 18.17505724 4.30478916 18.18646699 0.9140625 18.1953125 C-0.14743011 18.20563507 -1.20892273 18.21595764 -2.30258179 18.22659302 C-3.28344757 18.22674408 -4.26431335 18.22689514 -5.27490234 18.22705078 C-6.57396011 18.23371262 -6.57396011 18.23371262 -7.89926147 18.24050903 C-10 18 -10 18 -12 16 C-12.125 12.375 -12.125 12.375 -12 9 C-11.07767578 8.77957031 -11.07767578 8.77957031 -10.13671875 8.5546875 C-4.60212048 7.07960854 -4.60212048 7.07960854 -0.9375 2.8125 C-0.628125 1.884375 -0.31875 0.95625 0 0 Z " fill="#E8463C" transform="translate(148,227)"/>
<path d="M0 0 C0.33 0 0.66 0 1 0 C1.00808685 1.29403748 1.01617371 2.58807495 1.02450562 3.92132568 C1.10192655 16.10513668 1.18965565 28.28883545 1.28752708 40.47249985 C1.33751338 46.73652677 1.38384333 53.00053663 1.421875 59.26464844 C1.45869814 65.3077074 1.50505021 71.35062445 1.55806351 77.39356232 C1.57662322 79.70125087 1.59172532 82.00896986 1.60334396 84.3167038 C1.62017922 87.54429211 1.64920814 90.77155429 1.68115234 93.99902344 C1.68331253 94.95711914 1.68547272 95.91521484 1.68769836 96.90234375 C1.69886185 97.78291443 1.71002533 98.66348511 1.7215271 99.57073975 C1.72705786 100.33398434 1.73258862 101.09722893 1.73828697 101.88360214 C2.24260527 105.96187891 4.51341964 108.83526136 7 112 C5.68 112 4.36 112 3 112 C-1.08470904 107.62721645 -0.40217301 102.22137275 -0.34057617 96.61010742 C-0.34101425 95.56574524 -0.34145233 94.52138306 -0.34190369 93.44537354 C-0.33981617 89.99854746 -0.31648619 86.55220971 -0.29296875 83.10546875 C-0.28737268 80.71365118 -0.28310264 78.32183017 -0.28010559 75.93000793 C-0.26865775 69.63842251 -0.23919078 63.34704524 -0.20599365 57.05554199 C-0.17529165 50.63406185 -0.16159996 44.21254803 -0.14648438 37.79101562 C-0.11432129 25.19392167 -0.06370305 12.59697191 0 0 Z " fill="#BA423D" transform="translate(106,122)"/>
<path d="M0 0 C1.32 0 2.64 0 4 0 C4 5.61 4 11.22 4 17 C5.98 17 7.96 17 10 17 C10.66 18.32 11.32 19.64 12 21 C7.89864774 21.64334937 4.17263102 22 0 22 C0 14.74 0 7.48 0 0 Z " fill="#171717" transform="translate(156,261)"/>
<path d="M0 0 C1.98 0.495 1.98 0.495 4 1 C4 7.6 4 14.2 4 21 C2.68 21.33 1.36 21.66 0 22 C-1.16581918 19.66836164 -1.12905609 18.27846518 -1.1328125 15.68359375 C-1.13410156 14.83732422 -1.13539062 13.99105469 -1.13671875 13.11914062 C-1.13285156 12.23419922 -1.12898438 11.34925781 -1.125 10.4375 C-1.12886719 9.54869141 -1.13273437 8.65988281 -1.13671875 7.74414062 C-1.13542969 6.89916016 -1.13414063 6.05417969 -1.1328125 5.18359375 C-1.13168457 4.40556396 -1.13055664 3.62753418 -1.12939453 2.82592773 C-1 1 -1 1 0 0 Z " fill="#1B1B1B" transform="translate(81,261)"/>
<path d="M0 0 C2.0625 0.4375 2.0625 0.4375 4 1 C4.05791844 4.12492251 4.09356746 7.24970766 4.125 10.375 C4.14175781 11.26445312 4.15851563 12.15390625 4.17578125 13.0703125 C4.18222656 13.92109375 4.18867188 14.771875 4.1953125 15.6484375 C4.20578613 16.43395996 4.21625977 17.21948242 4.22705078 18.02880859 C4 20 4 20 2 22 C1.01 22 0.02 22 -1 22 C-1.02887814 18.52085059 -1.04675687 15.04173169 -1.0625 11.5625 C-1.07087891 10.56927734 -1.07925781 9.57605469 -1.08789062 8.55273438 C-1.09111328 7.60849609 -1.09433594 6.66425781 -1.09765625 5.69140625 C-1.10289307 4.81685791 -1.10812988 3.94230957 -1.11352539 3.04125977 C-1 1 -1 1 0 0 Z " fill="#181818" transform="translate(173,261)"/>
<path d="M0 0 C-0.33 0.99 -0.66 1.98 -1 3 C-3.95784231 4.22393475 -5.99727245 3.96516243 -9 3 C-9 3.66 -9 4.32 -9 5 C-9.66 5 -10.32 5 -11 5 C-11 7.64 -11 10.28 -11 13 C-11.99 13.495 -11.99 13.495 -13 14 C-14.26264601 9.70700357 -13.62950412 7.12168689 -12 3 C-12.99 4.98 -13.98 6.96 -15 9 C-15.8125 7.375 -15.8125 7.375 -16 5 C-13.99357994 2.07635934 -12.29753458 -0.30798156 -9.125 -2 C-5.88526965 -2 -3.05763777 -0.99961235 0 0 Z " fill="#161616" transform="translate(106,262)"/>
<path d="M0 0 C0 1.32 0 2.64 0 4 C-0.74765625 4.23074219 -1.4953125 4.46148437 -2.265625 4.69921875 C-7.99576654 6.59676562 -11.58308159 7.81134612 -15 13 C-20.20491803 18 -20.20491803 18 -23 18 C-23.66 19.32 -24.32 20.64 -25 22 C-25.66 21.67 -26.32 21.34 -27 21 C-8.86206897 0 -8.86206897 0 0 0 Z " fill="#CD5753" transform="translate(134,82)"/>
<path d="M0 0 C2.4375 0.1875 2.4375 0.1875 5 1 C6.3125 3.0625 6.3125 3.0625 7 5 C5.68 4.34 4.36 3.68 3 3 C3 6.63 3 10.26 3 14 C3.33 14 3.66 14 4 14 C5.125 19.75 5.125 19.75 4 22 C2.68 21.67 1.36 21.34 0 21 C-0.87346005 14.33986708 -1.40807542 7.72124218 -1 1 C-0.67 0.67 -0.34 0.34 0 0 Z " fill="#1D1D1D" transform="translate(42,261)"/>
<path d="M0 0 C10.6410596 -0.61986755 10.6410596 -0.61986755 15.5625 1.625 C19.49217051 5.45390972 20.92139296 8.37545443 21.1875 13.875 C21.0946875 15.421875 21.0946875 15.421875 21 17 C20.34 17 19.68 17 19 17 C18.78085938 16.25234375 18.56171875 15.5046875 18.3359375 14.734375 C16.32774885 8.46711721 16.32774885 8.46711721 12.3125 3.375 C8.19796041 1.66707791 4.42362519 1.19660556 0 1 C0 0.67 0 0.34 0 0 Z " fill="#AA4C49" transform="translate(129,104)"/>
<path d="M0 0 C0.93650391 -0.00773437 1.87300781 -0.01546875 2.83789062 -0.0234375 C4.19237305 -0.01957031 4.19237305 -0.01957031 5.57421875 -0.015625 C6.79564575 -0.01224121 6.79564575 -0.01224121 8.04174805 -0.00878906 C10.52236018 0.27391698 12.16348386 1.00967373 14.3125 2.25 C13.5918335 2.27505615 12.87116699 2.3001123 12.12866211 2.32592773 C8.83562536 2.44260076 5.54282499 2.56500179 2.25 2.6875 C1.11626953 2.72681641 -0.01746094 2.76613281 -1.18554688 2.80664062 C-6.75488395 3.01772337 -12.19260526 3.30095432 -17.6875 4.25 C-17.6875 3.59 -17.6875 2.93 -17.6875 2.25 C-11.715685 0.17427948 -6.2922198 -0.05261787 0 0 Z " fill="#C75A52" transform="translate(152.6875,78.75)"/>
<path d="M0 0 C1.32 0.33 2.64 0.66 4 1 C4 3.64 4 6.28 4 9 C3.34 9 2.68 9 2 9 C2 10.98 2 12.96 2 15 C2.66 15 3.32 15 4 15 C4 17.31 4 19.62 4 22 C2.68 21.67 1.36 21.34 0 21 C0 14.07 0 7.14 0 0 Z " fill="#1A1A1A" transform="translate(112,261)"/>
<path d="M0 0 C-0.78503906 0.35191406 -1.57007813 0.70382813 -2.37890625 1.06640625 C-9.1504856 4.24863311 -14.09036364 7.3852563 -19 13 C-19.97170193 13.98657492 -20.9501399 14.9665959 -21.9375 15.9375 C-22.9584375 16.9584375 -22.9584375 16.9584375 -24 18 C-24 13.82926402 -21.75265694 11.98034353 -19.0625 9.0625 C-18.56613037 8.52343018 -18.06976074 7.98436035 -17.55834961 7.42895508 C-12.75784405 2.42123345 -7.23226593 -2.37839618 0 0 Z " fill="#A33D36" transform="translate(132,104)"/>
<path d="M0 0 C0.33 0 0.66 0 1 0 C1 2.64 1 5.28 1 8 C2.010625 7.938125 3.02125 7.87625 4.0625 7.8125 C8.49117138 8.02338911 11.18025265 8.75308979 15 11 C16.4375 14.1875 16.4375 14.1875 17 17 C16.01 16.67 15.02 16.34 14 16 C14 15.34 14 14.68 14 14 C13.40832031 13.80664062 12.81664062 13.61328125 12.20703125 13.4140625 C8.0853355 12.05585281 4.0049476 10.67949415 0 9 C0 6.03 0 3.06 0 0 Z " fill="#B94643" transform="translate(42,84)"/>
<path d="M0 0 C2.31 1.98 4.62 3.96 7 6 C6.34 7.32 5.68 8.64 5 10 C5 9.34 5 8.68 5 8 C4.01 8.495 4.01 8.495 3 9 C2.31270746 11.11846285 2.31270746 11.11846285 1.875 13.5625 C1.70742188 14.38878906 1.53984375 15.21507812 1.3671875 16.06640625 C1.24601562 16.70449219 1.12484375 17.34257812 1 18 C0.67 18 0.34 18 0 18 C0 12.06 0 6.12 0 0 Z " fill="#0F0F0F" transform="translate(44,262)"/>
<path d="M0 0 C3 0.125 3 0.125 4 1.125 C4.07205511 2.81108966 4.08386068 4.50000659 4.0625 6.1875 C4.05347656 7.10660156 4.04445313 8.02570313 4.03515625 8.97265625 C4.02355469 9.68292969 4.01195313 10.39320313 4 11.125 C0.125 8.5 0.125 8.5 -1 5.125 C-1.66 5.125 -2.32 5.125 -3 5.125 C-3.5625 3.1875 -3.5625 3.1875 -4 1.125 C-3 0.125 -3 0.125 0 0 Z " fill="#171718" transform="translate(102,269.875)"/>
<path d="M0 0 C4.62 0 9.24 0 14 0 C14 1.32 14 2.64 14 4 C12.68 4 11.36 4 10 4 C10 5.32 10 6.64 10 8 C9.34 8 8.68 8 8 8 C8 6.02 8 4.04 8 2 C7.34 2 6.68 2 6 2 C6 2.66 6 3.32 6 4 C4.02 4 2.04 4 0 4 C0 2.68 0 1.36 0 0 Z " fill="#222223" transform="translate(131,261)"/>
<path d="M0 0 C1.65 0 3.3 0 5 0 C5 6.27 5 12.54 5 19 C5.66 19.33 6.32 19.66 7 20 C6.34 20 5.68 20 5 20 C4.67 20.66 4.34 21.32 4 22 C3 21 3 21 2.88647461 19.14233398 C2.89171143 18.35157471 2.89694824 17.56081543 2.90234375 16.74609375 C2.90556641 15.89208984 2.90878906 15.03808594 2.91210938 14.15820312 C2.92048828 13.26037109 2.92886719 12.36253906 2.9375 11.4375 C2.94201172 10.53580078 2.94652344 9.63410156 2.95117188 8.70507812 C2.96299775 6.46998686 2.9794778 4.23502563 3 2 C2.01 2 1.02 2 0 2 C0 1.34 0 0.68 0 0 Z " fill="#D14338" transform="translate(100,85)"/>
<path d="M0 0 C0.33 0.66 0.66 1.32 1 2 C-2.465 3.485 -2.465 3.485 -6 5 C-6 5.928125 -6 6.85625 -6 7.8125 C-6 9.875 -6 11.9375 -6 14 C-7.32 13.67 -8.64 13.34 -10 13 C-10 10.03 -10 7.06 -10 4 C-3.375 1.125 -3.375 1.125 0 0 Z " fill="#BE544F" transform="translate(52,234)"/>
<path d="M0 0 C0.99 0 1.98 0 3 0 C3.08119503 2.24940295 3.13927819 4.49964871 3.1875 6.75 C3.22230469 8.00296875 3.25710937 9.2559375 3.29296875 10.546875 C3 14 3 14 0 18 C0 12.06 0 6.12 0 0 Z " fill="#0D0D0D" transform="translate(82,262)"/>
<path d="M0 0 C0 3 0 3 -0.6875 6 C-0.790625 6.99 -0.89375 7.98 -1 9 C0.33333333 10.66666667 0.33333333 10.66666667 2 12 C2.6875 14.1875 2.6875 14.1875 3 16 C1.68 16.33 0.36 16.66 -1 17 C-3.32973665 13.92474762 -4.01486286 12.41616016 -3.875 8.5 C-3.0313683 5.12547321 -1.97645219 2.83577923 0 0 Z " fill="#0B0B0B" transform="translate(94,264)"/>
<path d="M0 0 C0.89589844 -0.01417969 1.79179687 -0.02835937 2.71484375 -0.04296875 C5.0625 0.1875 5.0625 0.1875 7.0625 2.1875 C5.0625 4.1875 5.0625 4.1875 3.1171875 4.3828125 C1.09895833 4.31770833 -0.91927083 4.25260417 -2.9375 4.1875 C-3.2675 3.1975 -3.5975 2.2075 -3.9375 1.1875 C-3.9375 3.4975 -3.9375 5.8075 -3.9375 8.1875 C-4.5975 8.1875 -5.2575 8.1875 -5.9375 8.1875 C-5.97991723 5.85455225 -5.97842937 3.52047433 -5.9375 1.1875 C-4.27188601 -0.47811399 -2.27787295 0.01634055 0 0 Z " fill="#212121" transform="translate(206.9375,260.8125)"/>
<path d="M0 0 C0.33 0.99 0.66 1.98 1 3 C-0.17755859 2.76603516 -0.17755859 2.76603516 -1.37890625 2.52734375 C-8.990287 1.11713701 -14.54018536 0.9112519 -22 3 C-22 2.34 -22 1.68 -22 1 C-14.31466713 -2.76424467 -8.1026034 -2.65430111 0 0 Z " fill="#D7463D" transform="translate(143,103)"/>
<path d="M0 0 C3.63 0 7.26 0 11 0 C11 0.33 11 0.66 11 1 C9.35 1 7.7 1 6 1 C6 2.98 6 4.96 6 7 C6.66 7 7.32 7 8 7 C7.67 10.63 7.34 14.26 7 18 C6.34 18 5.68 18 5 18 C5 12.39 5 6.78 5 1 C3.35 1 1.7 1 0 1 C0 0.67 0 0.34 0 0 Z " fill="#0C0C0D" transform="translate(133,262)"/>
<path d="M0 0 C-0.9977758 2.99332739 -1.7522025 3.94766315 -4 6 C-4 5.34 -4 4.68 -4 4 C-4.66 4 -5.32 4 -6 4 C-6 4.66 -6 5.32 -6 6 C-8.31 6.33 -10.62 6.66 -13 7 C-4.84931507 -1.61643836 -4.84931507 -1.61643836 0 0 Z " fill="#4B4B4E" transform="translate(70,17)"/>
<path d="M0 0 C0.99 0 1.98 0 3 0 C2.47473083 3.78193805 1.78599509 6.3100737 -1 9 C-4.75168806 10.03770095 -7.30641105 10.04505433 -11 9 C-9.741875 8.62875 -8.48375 8.2575 -7.1875 7.875 C-3.66547593 6.58463012 -3.11123386 6.17727896 -1 2.8125 C-0.505 1.4203125 -0.505 1.4203125 0 0 Z " fill="#D0534E" transform="translate(148,227)"/>
<path d="M0 0 C7.04573668 0.37082825 13.17280791 4.45552712 18.3046875 9.07421875 C20 11 20 11 20 13 C19.34 13 18.68 13 18 13 C16.33333333 11.33333333 14.66666667 9.66666667 13 8 C8.85084205 4.93323108 4.75573119 2.90229248 0 1 C0 0.67 0 0.34 0 0 Z " fill="#BD574E" transform="translate(167,81)"/>
<path d="M0 0 C2.6875 0.3125 2.6875 0.3125 5 1 C5.33 2.65 5.66 4.3 6 6 C5.01 6.33 4.02 6.66 3 7 C-0.1875 5.0625 -0.1875 5.0625 -3 3 C-1.8125 1.4375 -1.8125 1.4375 0 0 Z " fill="#3C3C3D" transform="translate(61,64)"/>
<path d="M0 0 C3.73487777 0.4979837 5.81237635 0.87491756 9 3 C9.29296875 5.1640625 9.29296875 5.1640625 9.1875 7.625 C9.16042969 8.44226563 9.13335937 9.25953125 9.10546875 10.1015625 C9.07066406 10.72804687 9.03585938 11.35453125 9 12 C8.34 12 7.68 12 7 12 C6.82984375 11.38511719 6.6596875 10.77023438 6.484375 10.13671875 C5.0327103 5.02672252 5.0327103 5.02672252 1.8125 0.9375 C1.214375 0.628125 0.61625 0.31875 0 0 Z " fill="#BB554E" transform="translate(114,235)"/>
<path d="M0 0 C5.40489519 1.52012677 8.98492628 5.27385218 13 9 C12.67 10.32 12.34 11.64 12 13 C10.25728062 10.702779 8.60088848 8.40133271 7 6 C4.69855891 4.92863949 2.3659787 3.92010283 0 3 C0 2.01 0 1.02 0 0 Z " fill="#67676A" transform="translate(89,17)"/>
<path d="M0 0 C0.66 0 1.32 0 2 0 C2 4.95 2 9.9 2 15 C0.68 15 -0.64 15 -2 15 C-1.835 14.43539063 -1.67 13.87078125 -1.5 13.2890625 C-0.97614004 10.89076612 -0.93447302 8.82407095 -1 6.375 C-1.11041009 2.22082019 -1.11041009 2.22082019 0 0 Z " fill="#202020" transform="translate(125,268)"/>
<path d="M0 0 C1.65 0 3.3 0 5 0 C5.33 0.66 5.66 1.32 6 2 C7.65 1.67 9.3 1.34 11 1 C10.67 1.99 10.34 2.98 10 4 C3.375 5.125 3.375 5.125 0 4 C0 2.68 0 1.36 0 0 Z " fill="#1F1F1F" transform="translate(63,278)"/>
<path d="M0 0 C1.32 0.33 2.64 0.66 4 1 C4.20086443 4.71599191 4.1519437 5.77208445 2 9 C-1.625 9.1875 -1.625 9.1875 -5 9 C-5 8.67 -5 8.34 -5 8 C-3.35 8 -1.7 8 0 8 C0 5.36 0 2.72 0 0 Z " fill="#151515" transform="translate(123,261)"/>
<path d="M0 0 C0.66 0.33 1.32 0.66 2 1 C1.55269531 1.42410156 1.10539062 1.84820312 0.64453125 2.28515625 C-3.44951902 6.25699606 -6.813901 10.26912573 -10 15 C-11.125 11.25 -11.125 11.25 -10 9 C-9.01 9 -8.02 9 -7 9 C-7 7.68 -7 6.36 -7 5 C-6.401875 4.731875 -5.80375 4.46375 -5.1875 4.1875 C-3.02775192 3.01506533 -1.64209744 1.80630718 0 0 Z " fill="#DE473E" transform="translate(117,107)"/>
<path d="M0 0 C2.64 0 5.28 0 8 0 C8 0.33 8 0.66 8 1 C5.69 1 3.38 1 1 1 C1 1.66 1 2.32 1 3 C1.99 3.33 2.98 3.66 4 4 C3.67 5.32 3.34 6.64 3 8 C4.32 8.33 5.64 8.66 7 9 C4.69 9.33 2.38 9.66 0 10 C0 6.7 0 3.4 0 0 Z " fill="#0E0E0E" transform="translate(203,262)"/>
<path d="M0 0 C0.99 0 1.98 0 3 0 C3.33 1.98 3.66 3.96 4 6 C1.64561267 7.42944945 0.51967567 8.08661261 -2.25 7.625 C-2.8275 7.41875 -3.405 7.2125 -4 7 C-4 6.34 -4 5.68 -4 5 C-3.01 4.67 -2.02 4.34 -1 4 C-0.26676204 1.98491642 -0.26676204 1.98491642 0 0 Z " fill="#0F0F0F" transform="translate(72,273)"/>
<path d="M0 0 C0 2.33333333 0 4.66666667 0 7 C-0.99 7 -1.98 7 -3 7 C-3.66 8.98 -4.32 10.96 -5 13 C-5.66 13 -6.32 13 -7 13 C-5.74875245 7.31251115 -3.95897432 4.27152492 0 0 Z " fill="#373737" transform="translate(56,24)"/>
<path d="M0 0 C3 2 3 2 3.75 5 C4 8 4 8 3 10 C1.68 9.67 0.36 9.34 -1 9 C-1.09765625 2.84765625 -1.09765625 2.84765625 -1 1 C-0.67 0.67 -0.34 0.34 0 0 Z " fill="#252528" transform="translate(43,273)"/>
<path d="M0 0 C3.50685646 2.22100909 4.90496596 3.98487518 6 8 C6.07646165 10.3320802 6.09143299 12.66845878 6 15 C5.34 15 4.68 15 4 15 C3.87882813 14.25234375 3.75765625 13.5046875 3.6328125 12.734375 C3.46523437 11.74953125 3.29765625 10.7646875 3.125 9.75 C2.96257812 8.77546875 2.80015625 7.8009375 2.6328125 6.796875 C2.05144152 4.22735883 1.29159735 2.27928944 0 0 Z " fill="#CA5147" transform="translate(144,106)"/>
<path d="M0 0 C0.33 0.66 0.66 1.32 1 2 C1.66 2 2.32 2 3 2 C2.67 3.98 2.34 5.96 2 8 C4.31 8 6.62 8 9 8 C9.33 8.99 9.66 9.98 10 11 C6.7 10.34 3.4 9.68 0 9 C0 6.03 0 3.06 0 0 Z " fill="#D94741" transform="translate(43,83)"/>
<path d="M0 0 C0.99 0.33 1.98 0.66 3 1 C3.72433347 2.97984481 4.37743972 4.98583438 5 7 C6.25831488 9.70610575 7.61736613 12.35554494 9 15 C7 15 7 15 5.0625 13.125 C2.33658313 8.99482293 1.2200595 4.76008064 0 0 Z " fill="#32312D" transform="translate(48,49)"/>
<path d="M0 0 C2.3125 -0.25 2.3125 -0.25 5 0 C6.8125 2 6.8125 2 8 4 C4.71303767 4.79953138 3.28976808 5.09658936 0 4 C-0.99 4.66 -1.98 5.32 -3 6 C-2 4 -1 2 0 0 Z " fill="#E6443E" transform="translate(110,234)"/>
<path d="M0 0 C0 1.32 0 2.64 0 4 C-2.64 4.66 -5.28 5.32 -8 6 C-8 5.01 -8 4.02 -8 3 C-2.25 0 -2.25 0 0 0 Z " fill="#CE534C" transform="translate(134,82)"/>
<path d="M0 0 C0.99 0.495 0.99 0.495 2 1 C2 1.66 2 2.32 2 3 C2.99 2.67 3.98 2.34 5 2 C6.85776765 5.13498292 7.20140476 7.37471432 7 11 C6.34 11 5.68 11 5 11 C5 9.35 5 7.7 5 6 C3.68 6 2.36 6 1 6 C0.67 4.02 0.34 2.04 0 0 Z " fill="#D5423A" transform="translate(183,91)"/>
<path d="M0 0 C0.33 0 0.66 0 1 0 C1.1875 2.875 1.1875 2.875 1 6 C0.01 6.66 -0.98 7.32 -2 8 C-2.99 7.01 -3.98 6.02 -5 5 C-4.67 4.34 -4.34 3.68 -4 3 C-3.67 3.33 -3.34 3.66 -3 4 C-2.525625 3.34 -2.05125 2.68 -1.5625 2 C-1.046875 1.34 -0.53125 0.68 0 0 Z " fill="#232323" transform="translate(57,275)"/>
<path d="M0 0 C1.98 0 3.96 0 6 0 C6.33 1.32 6.66 2.64 7 4 C6.34 4 5.68 4 5 4 C5 4.99 5 5.98 5 7 C4.01 6.67 3.02 6.34 2 6 C2 5.01 2 4.02 2 3 C1.34 2.01 0.68 1.02 0 0 Z " fill="#181818" transform="translate(46,270)"/>
<path d="M0 0 C1.98 0.66 3.96 1.32 6 2 C5.67 2.99 5.34 3.98 5 5 C2.04215769 6.22393475 0.00272755 5.96516243 -3 5 C-3 4.34 -3 3.68 -3 3 C-1.5459375 3.0309375 -1.5459375 3.0309375 -0.0625 3.0625 C2.87465895 3.35618499 2.87465895 3.35618499 4 2 C2.68 2 1.36 2 0 2 C0 1.34 0 0.68 0 0 Z " fill="#212122" transform="translate(100,260)"/>
<path d="M0 0 C1.98 0.495 1.98 0.495 4 1 C4 2.32 4 3.64 4 5 C1.5 6.75 1.5 6.75 -1 8 C-1.125 2.25 -1.125 2.25 0 0 Z " fill="#727376" transform="translate(98,56)"/>
<path d="M0 0 C1.98 0.495 1.98 0.495 4 1 C3.67 4.96 3.34 8.92 3 13 C2.67 13 2.34 13 2 13 C2 10.03 2 7.06 2 4 C1.01 3.67 0.02 3.34 -1 3 C-0.34 3 0.32 3 1 3 C0.67 2.01 0.34 1.02 0 0 Z " fill="#E4453C" transform="translate(58,98)"/>
<path d="M0 0 C1.46534385 3.80989402 0.55203911 6.3241179 -1 10 C-1.99 10.495 -1.99 10.495 -3 11 C-3 8.36 -3 5.72 -3 3 C-2.01 3 -1.02 3 0 3 C0 2.01 0 1.02 0 0 Z " fill="#1C1C17" transform="translate(51,38)"/>
<path d="M0 0 C0.33 0.66 0.66 1.32 1 2 C1.99 2.33 2.98 2.66 4 3 C5.35439668 5.70879335 5.06501451 8.00933268 5 11 C4.34 11 3.68 11 3 11 C2.67 8.36 2.34 5.72 2 3 C1.34 3 0.68 3 0 3 C0 2.01 0 1.02 0 0 Z " fill="#6B6C6E" transform="translate(102,31)"/>
<path d="M0 0 C0.33 1.32 0.66 2.64 1 4 C-0.175625 4.37125 -0.175625 4.37125 -1.375 4.75 C-4.32317108 6.15389099 -4.9024777 7.00675737 -6 10 C-6.66 9.67 -7.32 9.34 -8 9 C-5.36 6.03 -2.72 3.06 0 0 Z " fill="#BF5D5A" transform="translate(115,94)"/>
<path d="M0 0 C0 1.32 0 2.64 0 4 C-1.32 3.67 -2.64 3.34 -4 3 C-3.67 2.67 -3.34 2.34 -3 2 C-4.65 2 -6.3 2 -8 2 C-8 1.34 -8 0.68 -8 0 C-5.13822943 -1.43088528 -3.06624227 -0.59991697 0 0 Z " fill="#202020" transform="translate(74,261)"/>
<path d="M0 0 C0.33 0 0.66 0 1 0 C1.309375 1.11375 1.61875 2.2275 1.9375 3.375 C2.82326483 6.7945155 2.82326483 6.7945155 4 9 C2.35 8.67 0.7 8.34 -1 8 C-1.04241723 5.66705225 -1.04092937 3.33297433 -1 1 C-0.67 0.67 -0.34 0.34 0 0 Z " fill="#C6534F" transform="translate(135,237)"/>
<path d="M0 0 C0.66 0.99 1.32 1.98 2 3 C1.67 3.66 1.34 4.32 1 5 C-1.32156597 5.40729228 -3.6568787 5.74438677 -6 6 C-4 4 -2 2 0 0 Z " fill="#444444" transform="translate(63,18)"/>
<path d="M0 0 C2.64 0 5.28 0 8 0 C7.67 2.64 7.34 5.28 7 8 C6.67 8 6.34 8 6 8 C5.7525 7.05125 5.505 6.1025 5.25 5.125 C4.3142923 1.91306809 4.3142923 1.91306809 1.875 0.625 C1.25625 0.41875 0.6375 0.2125 0 0 Z " fill="#D75249" transform="translate(204,237)"/>
<path d="M0 0 C0.66 0 1.32 0 2 0 C2 1.98 2 3.96 2 6 C0.68 6 -0.64 6 -2 6 C-1.49396008 3.83125748 -1.00016187 2.00032373 0 0 Z " fill="#1A1A1A" transform="translate(125,277)"/>
<path d="" fill="#000000" transform="translate(0,0)"/>
<path d="" fill="#000000" transform="translate(0,0)"/>
<path d="" fill="#000000" transform="translate(0,0)"/>
<path d="" fill="#000000" transform="translate(0,0)"/>
<path d="" fill="#000000" transform="translate(0,0)"/>
<path d="" fill="#000000" transform="translate(0,0)"/>
<path d="" fill="#2A2A2A" transform="translate(0,0)"/>
<path d="" fill="#000000" transform="translate(0,0)"/>
<path d="" fill="#000000" transform="translate(0,0)"/>
<path d="" fill="#000000" transform="translate(0,0)"/>
<path d="" fill="#000000" transform="translate(0,0)"/>
<path d="" fill="#000000" transform="translate(0,0)"/>
<path d="" fill="#000000" transform="translate(0,0)"/>
</svg>
