<svg version="1.1" id="Logos" xmlns:x="ns_extend;" xmlns:i="ns_ai;" xmlns:graph="ns_graphs;" xmlns="http://www.w3.org/2000/svg" xmlns:xlink="http://www.w3.org/1999/xlink" x="0px" y="0px" viewBox="0 0 135 81" style="enable-background:new 0 0 135 81;" xml:space="preserve">
 <style type="text/css">
  .st0{fill:#0014DC;}
 </style>
 <metadata>
  <sfw xmlns="ns_sfw;">
   <slices>
   </slices>
   <sliceSourceBounds bottomLeftOrigin="true" height="81" width="135" x="607.5" y="364.5">
   </sliceSourceBounds>
  </sfw>
 </metadata>
 <g>
  <path class="st0" d="M63.7,62.1C37.9,41.4,27.1,14.9,0,14.9v47.2H63.7z">
  </path>
  <path class="st0" d="M118.7,14.1c-5.3,0-10,2.3-12.7,5.7V0h-6.4v47.2h5.2l0.7-5c1.8,2.5,5.6,5.7,12.9,5.7c9.7,0,16.6-7,16.6-16.8
		S128.4,14.1,118.7,14.1L118.7,14.1z M116.9,42c-7,0-11.2-4.2-11.2-11s4.3-11,11.2-11c6.9,0,11.2,4.2,11.2,11S123.8,42,116.9,42z">
  </path>
  <rect x="88.5" class="st0" width="6.4" height="47.2">
  </rect>
  <path class="st0" d="M70.4,42.5c-4.7,0-9.5-2.3-12.2-5.5L54,41c4.2,4.8,9.7,6.9,16.2,6.9c8.9,0,14.5-4,14.5-10.7
		c0-13.9-24.2-5.2-24.2-13.1c0-2.9,3.4-4.5,8.6-4.5c4.7,0,8,1.5,10.1,3.7l4.3-4.1c-2.9-3.1-8.2-5.1-14.2-5.1c-9,0-15,4.3-15,11
		c0,13.5,24.1,4.9,24.1,12.8C78.4,40.8,75.2,42.5,70.4,42.5L70.4,42.5z">
  </path>
  <path class="st0" d="M134.3,57.4h-69C79.6,69,101.4,81,134.3,81V57.4z">
  </path>
 </g>
</svg>